<?xml version="1.0" encoding="UTF-8" standalone="no"?>
<svg
   xmlns:dc="http://purl.org/dc/elements/1.1/"
   xmlns:cc="http://creativecommons.org/ns#"
   xmlns:rdf="http://www.w3.org/1999/02/22-rdf-syntax-ns#"
   xmlns:svg="http://www.w3.org/2000/svg"
   xmlns="http://www.w3.org/2000/svg"
   version="1.1"
   id="svg2"
   viewBox="0 0 99.271997 85.232002"
   height="24.054365mm"
   width="28.016764mm">
  <defs
     id="defs4" />
  <metadata
     id="metadata7">
    <rdf:RDF>
      <cc:Work
         rdf:about="">
        <dc:format>image/svg+xml</dc:format>
        <dc:type
           rdf:resource="http://purl.org/dc/dcmitype/StillImage" />
        <dc:title></dc:title>
      </cc:Work>
    </rdf:RDF>
  </metadata>
  <g
     transform="translate(-475.72114,-864.38906)"
     id="layer1">
    <g
       transform="translate(425.14334,146.18416)"
       id="g3390">
      <path
         d="m 91.9338,747.1769 0.432,0"
         style="fill:none;stroke:#102a83;stroke-width:0.2;stroke-linecap:butt;stroke-linejoin:bevel;stroke-dasharray:none"
         id="path3338" />
      <path
         d="m 133.1178,745.5209 c 0,0 0,0 0,0 z"
         style="fill:none;stroke:#102a83;stroke-width:0.2;stroke-linecap:butt;stroke-linejoin:bevel;stroke-dasharray:none"
         id="path3340" />
      <path
         d="m 108.4218,745.5209 0,0 c -0.072,-2.52 -0.288,-5.112 -0.648,-7.632 l 0,0 c 0.36,2.52 0.576,5.112 0.648,7.632 z m -0.648,-7.632 0,0 c -0.36,-2.304 -0.936,-4.536 -1.728,-6.768 l 0,0 c 0.792,2.232 1.368,4.464 1.728,6.768 z m -1.728,-6.768 0,0 c -0.72,-2.016 -1.8,-3.888 -3.24,-5.472 l 0,0 c 1.44,1.584 2.52,3.456 3.24,5.472 z m -3.24,-5.472 0,0 c -0.648,-0.72 -1.584,-1.152 -2.592,-1.152 l 0,0 c 1.008,0 1.944,0.432 2.592,1.152 z m -2.592,-1.152 0,0 c -1.008,0 -1.944,0.432 -2.592,1.152 l 0,0 c 0.648,-0.72 1.584,-1.152 2.592,-1.152 z m -2.592,1.152 0,0 c -1.44,1.584 -2.52,3.456 -3.24,5.472 l 0,0 c 0.72,-2.016 1.8,-3.888 3.24,-5.472 z m -3.24,5.472 0,0 c -0.792,2.232 -1.368,4.464 -1.728,6.768 l 0,0 c 0.36,-2.304 0.936,-4.536 1.728,-6.768 z m -1.728,6.768 0,0 c -0.432,3.096 -0.72,6.192 -0.72,9.288 l 0,0 c 0,-3.096 0.216,-6.192 0.72,-9.288 z m -0.72,9.288 0,0 c 0,2.376 0.144,4.752 0.432,7.128 l 0,0 c -0.288,-2.376 -0.432,-4.752 -0.432,-7.128 z"
         style="fill:none;stroke:#102a83;stroke-width:0.49970001;stroke-linecap:butt;stroke-linejoin:bevel;stroke-dasharray:none"
         id="path3342" />
      <path
         d="m 116.7018,745.5209 0,0 c -0.144,-2.448 -0.576,-4.968 -1.296,-7.344 l 0,0 c 0.72,2.376 1.152,4.896 1.296,7.344 z m -1.296,-7.344 0,0 c -0.792,-2.52 -1.944,-4.896 -3.528,-7.056 l 0,0 c 1.584,2.16 2.736,4.536 3.528,7.056 z m -3.528,-7.056 0,0 c -1.512,-2.088 -3.456,-3.816 -5.616,-5.04 l 0,0 c 2.232,1.224 4.104,2.952 5.616,5.04 z m -5.616,-5.04 0,0 c -1.872,-1.08 -3.96,-1.584 -6.048,-1.584 l 0,0 c 2.088,0 4.176,0.504 6.048,1.584 z m -6.048,-1.584 0,0 c -2.088,0 -4.176,0.504 -6.048,1.584 l 0,0 c 1.872,-1.08 3.96,-1.584 6.048,-1.584 z m -6.048,1.584 0,0 c -2.232,1.224 -4.104,2.952 -5.616,5.04 l 0,0 c 1.512,-2.088 3.384,-3.816 5.616,-5.04 z m -5.616,5.04 0,0 c -1.584,2.16 -2.736,4.536 -3.528,7.056 l 0,0 c 0.792,-2.52 1.944,-4.896 3.528,-7.056 z m -3.528,7.056 0,0 c -0.864,2.952 -1.296,5.976 -1.296,9 l 0,0 c 0,-3.024 0.432,-6.048 1.296,-9 z m -1.296,9 0,0 c 0,3.024 0.432,6.048 1.296,9 l 0,0 c -0.864,-2.952 -1.296,-5.976 -1.296,-9 z m 1.296,9 0,0 c 0.792,2.52 1.944,4.896 3.528,7.056 l 0,0 c -1.584,-2.16 -2.736,-4.536 -3.528,-7.056 z m 3.528,7.056 0,0 c 1.08,1.44 2.376,2.808 3.816,3.888 l 0,0 c -1.44,-1.08 -2.736,-2.376 -3.816,-3.888 z"
         style="fill:none;stroke:#102a83;stroke-width:0.49970001;stroke-linecap:butt;stroke-linejoin:bevel;stroke-dasharray:none"
         id="path3344" />
      <path
         d="m 108.0618,767.1209 0,0 c 1.44,-1.08 2.736,-2.448 3.816,-3.888 l 0,0 c -1.08,1.512 -2.376,2.808 -3.816,3.888 z m 3.816,-3.888 0,0 c 1.584,-2.16 2.736,-4.536 3.528,-7.056 l 0,0 c -0.792,2.52 -1.944,4.896 -3.528,7.056 z m 3.528,-7.056 0,0 c 0.36,-1.224 0.648,-2.448 0.864,-3.6 l 0,0 c -0.216,1.152 -0.504,2.376 -0.864,3.6 z"
         style="fill:none;stroke:#102a83;stroke-width:0.49970001;stroke-linecap:butt;stroke-linejoin:bevel;stroke-dasharray:none"
         id="path3346" />
      <path
         d="m 124.9098,745.5209 0,0 c -0.216,-2.376 -0.792,-4.752 -1.8,-6.912 l 0,0 c 1.008,2.16 1.584,4.536 1.8,6.912 z m -1.8,-6.912 0,0 c -1.296,-2.88 -3.096,-5.4 -5.4,-7.488 l 0,0 c 2.304,2.088 4.176,4.608 5.4,7.488 z m -5.4,-7.488 0,0 c -2.304,-2.088 -4.968,-3.744 -7.92,-4.896 l 0,0 c 2.952,1.152 5.616,2.808 7.92,4.896 z m -7.92,-4.896 0,0 c -3.096,-1.152 -6.336,-1.728 -9.576,-1.728 l 0,0 c 3.24,0 6.48,0.576 9.576,1.728 z m -9.576,-1.728 0,0 c -3.312,0 -6.552,0.576 -9.576,1.728 l 0,0 c 3.024,-1.152 6.264,-1.728 9.576,-1.728 z m -9.576,1.728 0,0 c -2.952,1.152 -5.616,2.808 -7.92,4.896 l 0,0 c 2.304,-2.088 4.968,-3.744 7.92,-4.896 z m -7.92,4.896 0,0 c -2.304,2.088 -4.176,4.608 -5.4,7.488 l 0,0 c 1.224,-2.88 3.096,-5.4 5.4,-7.488 z m -5.4,7.488 0,0 c -1.224,2.664 -1.872,5.616 -1.872,8.568 l 0,0 c 0,-2.952 0.648,-5.904 1.872,-8.568 z m -1.872,8.568 0,0 c 0,2.952 0.648,5.904 1.872,8.568 l 0,0 c -1.224,-2.664 -1.872,-5.616 -1.872,-8.568 z m 1.872,8.568 0,0 c 1.224,2.88 3.096,5.4 5.4,7.488 l 0,0 c -2.304,-2.088 -4.176,-4.608 -5.4,-7.488 z m 5.4,7.488 0,0 c 2.304,2.088 4.968,3.744 7.92,4.896 l 0,0 c -2.952,-1.08 -5.616,-2.808 -7.92,-4.896 z m 7.92,4.896 0,0 c 0.576,0.216 1.152,0.432 1.728,0.576 l 0,0 c -0.576,-0.144 -1.152,-0.36 -1.728,-0.576 z"
         style="fill:none;stroke:#102a83;stroke-width:0.49970001;stroke-linecap:butt;stroke-linejoin:bevel;stroke-dasharray:none"
         id="path3348" />
      <path
         d="m 108.0618,768.7049 0,0 c 0.576,-0.144 1.152,-0.36 1.728,-0.576 l 0,0 c -0.576,0.216 -1.152,0.432 -1.728,0.576 z m 1.728,-0.576 0,0 c 2.952,-1.152 5.616,-2.808 7.92,-4.896 l 0,0 c -2.304,2.088 -4.968,3.816 -7.92,4.896 z m 7.92,-4.896 0,0 c 2.304,-2.088 4.104,-4.608 5.4,-7.488 l 0,0 c -1.224,2.88 -3.096,5.4 -5.4,7.488 z m 5.4,-7.488 0,0 c 0.504,-1.008 0.864,-2.088 1.152,-3.168 l 0,0 c -0.288,1.08 -0.648,2.16 -1.152,3.168 z"
         style="fill:none;stroke:#102a83;stroke-width:0.49970001;stroke-linecap:butt;stroke-linejoin:bevel;stroke-dasharray:none"
         id="path3350" />
      <path
         d="m 84.1578,767.0489 0,0 c 0.936,0.36 1.944,0.72 2.952,1.008 l 0,0 c -1.008,-0.288 -2.016,-0.648 -2.952,-1.008 z m 2.952,1.008 0,0 c 1.728,0.504 3.456,0.864 5.256,1.152 l 0,0 c -1.8,-0.288 -3.528,-0.648 -5.256,-1.152 z"
         style="fill:none;stroke:#102a83;stroke-width:0.49970001;stroke-linecap:butt;stroke-linejoin:bevel;stroke-dasharray:none"
         id="path3352" />
      <path
         d="m 109.7178,768.9209 0,0 c 1.224,-0.216 2.376,-0.504 3.6,-0.864 l 0,0 c -1.224,0.36 -2.376,0.648 -3.6,0.864 z m 3.6,-0.864 0,0 c 1.152,-0.36 2.232,-0.72 3.312,-1.152 l 0,0 c -1.08,0.432 -2.16,0.864 -3.312,1.152 z"
         style="fill:none;stroke:#102a83;stroke-width:0.49970001;stroke-linecap:butt;stroke-linejoin:bevel;stroke-dasharray:none"
         id="path3354" />
      <path
         d="m 133.1178,745.5209 0,0 c -0.216,-2.304 -0.936,-4.536 -2.16,-6.552 l 0,0 c 1.224,2.016 1.944,4.248 2.16,6.552 z m -2.16,-6.552 0,0 c -0.216,-0.36 -0.432,-0.72 -0.72,-1.08 l 0,0 c 0.288,0.36 0.504,0.72 0.72,1.08 z"
         style="fill:none;stroke:#102a83;stroke-width:0.56690001;stroke-linecap:butt;stroke-linejoin:bevel;stroke-dasharray:none"
         id="path3356" />
      <path
         d="m 129.5178,736.8809 c -1.656,-2.232 -3.672,-4.176 -5.976,-5.76 -3.096,-2.16 -6.552,-3.744 -10.224,-4.824 -4.248,-1.224 -8.64,-1.8 -13.104,-1.8 -4.464,0 -8.856,0.576 -13.104,1.8 -3.672,1.08 -7.128,2.664 -10.224,4.824 -3.024,2.088 -5.544,4.752 -7.416,7.848 -1.512,2.448 -2.304,5.328 -2.304,8.208 0,2.88 0.792,5.76 2.304,8.208 1.872,3.096 4.392,5.76 7.416,7.848 2.232,1.584 4.68,2.88 7.272,3.816 l 2.664,0.936 0,7.056 -2.664,-0.504 c -1.296,-0.216 -2.52,-0.504 -3.816,-0.864 -5.328,-1.224 -10.44,-3.312 -15.192,-6.048 -4.392,-2.592 -8.28,-6.12 -11.232,-10.296 -2.088,-3.024 -3.24,-6.552 -3.24,-10.152 0,-3.6 1.152,-7.128 3.24,-10.08 2.952,-4.248 6.84,-7.776 11.232,-10.368 4.752,-2.736 9.864,-4.824 15.192,-6.048 6.48,-1.584 13.176,-2.376 19.872,-2.376 6.696,0 13.392,0.792 19.872,2.376 5.328,1.224 10.44,3.312 15.12,6.048 4.32,2.52 8.064,5.832 10.944,9.864 l 0.864,1.224 -16.776,0.072 c -0.216,-0.36 -0.432,-0.648 -0.72,-1.008 z"
         style="fill:#102a83;fill-rule:evenodd;stroke:#102a83;stroke-width:0.2;stroke-linecap:butt;stroke-linejoin:bevel;stroke-dasharray:none"
         id="path3358" />
      <path
         d="m 123.8298,752.5769 0,-7.056 25.776,0 0.144,1.656 c 0,3.6 -1.152,7.128 -3.24,10.152 -2.952,4.176 -6.84,7.704 -11.304,10.296 -4.68,2.736 -9.792,4.824 -15.12,6.048 -1.152,0.288 -2.304,0.576 -3.528,0.792 l 0.072,-7.56 c 2.448,-0.936 4.752,-2.16 6.912,-3.672 3.024,-2.088 5.544,-4.752 7.416,-7.848 0.504,-0.864 1.008,-1.8 1.368,-2.808 l -0.072,0 -8.424,0 z"
         style="fill:#102a83;fill-rule:evenodd;stroke:#102a83;stroke-width:0.2;stroke-linecap:butt;stroke-linejoin:bevel;stroke-dasharray:none"
         id="path3360" />
      <path
         d="m 100.2138,724.4969 0,0 0,21.024 0,0 0,-21.024 z"
         style="fill:none;stroke:#102a83;stroke-width:0.49970001;stroke-linecap:butt;stroke-linejoin:bevel;stroke-dasharray:none"
         id="path3362" />
      <path
         d="m 77.5338,730.6889 0,0 45.36,0 0,0 -45.36,0 z"
         style="fill:none;stroke:#102a83;stroke-width:0.49970001;stroke-linecap:butt;stroke-linejoin:bevel;stroke-dasharray:none"
         id="path3364" />
      <path
         d="m 69.4698,738.9689 0,-0.072 61.488,0 0,0.072 -61.488,0 z"
         style="fill:none;stroke:#102a83;stroke-width:0.49970001;stroke-linecap:butt;stroke-linejoin:bevel;stroke-dasharray:none"
         id="path3366" />
      <path
         d="m 67.1658,747.1769 0,0 24.768,0 0,0 -24.768,0 z"
         style="fill:none;stroke:#102a83;stroke-width:0.49970001;stroke-linecap:butt;stroke-linejoin:bevel;stroke-dasharray:none"
         id="path3368" />
      <path
         d="m 118.7898,747.1769 0,0 5.04,0 0,0 -5.04,0 z"
         style="fill:none;stroke:#102a83;stroke-width:0.49970001;stroke-linecap:butt;stroke-linejoin:bevel;stroke-dasharray:none"
         id="path3370" />
      <path
         d="m 69.4698,755.4569 0,0 22.896,0 0,0 -22.896,0 z"
         style="fill:none;stroke:#102a83;stroke-width:0.49970001;stroke-linecap:butt;stroke-linejoin:bevel;stroke-dasharray:none"
         id="path3372" />
      <path
         d="m 108.0618,755.4569 0,0 22.896,0 0,0 -22.896,0 z"
         style="fill:none;stroke:#102a83;stroke-width:0.49970001;stroke-linecap:butt;stroke-linejoin:bevel;stroke-dasharray:none"
         id="path3374" />
      <path
         d="m 108.0618,763.6649 0,0 14.832,0 0,0 -14.832,0 z"
         style="fill:none;stroke:#102a83;stroke-width:0.49970001;stroke-linecap:butt;stroke-linejoin:bevel;stroke-dasharray:none"
         id="path3376" />
      <path
         d="m 77.5338,763.6649 0,0 14.832,0 0,0 -14.832,0 z"
         style="fill:none;stroke:#102a83;stroke-width:0.49970001;stroke-linecap:butt;stroke-linejoin:bevel;stroke-dasharray:none"
         id="path3378" />
      <path
         d="m 110.5098,768.9209 0,0 z"
         style="fill:none;stroke:#102a83;stroke-width:0.2;stroke-linecap:butt;stroke-linejoin:bevel;stroke-dasharray:none"
         id="path3380" />
      <path
         d="m 110.5098,768.9209 0,0.144 0,5.328 0,1.224 -2.448,0 0,27.72 -15.696,0 0,-34.128 0,-23.688 26.424,0 0,7.056 -10.728,0 0,16.344 1.656,0 0.792,0 z"
         style="fill:#102a83;fill-rule:evenodd;stroke:#102a83;stroke-width:0.2;stroke-linecap:butt;stroke-linejoin:bevel;stroke-dasharray:none"
         id="path3382" />
    </g>
  </g>
</svg>
