<?xml version="1.0" encoding="UTF-8" standalone="no"?>
<svg
   xmlns:dc="http://purl.org/dc/elements/1.1/"
   xmlns:cc="http://creativecommons.org/ns#"
   xmlns:rdf="http://www.w3.org/1999/02/22-rdf-syntax-ns#"
   xmlns:svg="http://www.w3.org/2000/svg"
   xmlns="http://www.w3.org/2000/svg"
   version="1.1"
   id="svg3422"
   viewBox="0 0 295.37508 124.71283"
   height="35.196732mm"
   width="83.361412mm">
  <defs
     id="defs3424">
    <style
       type="text/css"
       id="style3434"><![CDATA[
    .str0 {stroke:#28166F;stroke-linejoin:bevel}
    .str1 {stroke:#28166F;stroke-width:0.1763;stroke-linejoin:bevel}
    .str2 {stroke:#28166F;stroke-width:0.2;stroke-linejoin:bevel}
    .fil0 {fill:none}
    .fil1 {fill:#28166F}
   ]]></style>
  </defs>
  <metadata
     id="metadata3427">
    <rdf:RDF>
      <cc:Work
         rdf:about="">
        <dc:format>image/svg+xml</dc:format>
        <dc:type
           rdf:resource="http://purl.org/dc/dcmitype/StillImage" />
        <dc:title></dc:title>
      </cc:Work>
    </rdf:RDF>
  </metadata>
  <g
     transform="translate(-227.31246,-252.86293)"
     id="layer1">
    <g
       transform="translate(227.3122,252.86258)"
       id="g3546"
       style="overflow:visible">
      <g
         id="Compass"
         transform="translate(1.9392276,4.0277947)">
        <path
           style="fill:#4ba947"
           d="M 52.293,113.341 C 26.093,112.426 5.593,90.444 6.508,64.242 7.422,38.038 29.406,17.542 55.607,18.457 c 18.112,0.633 33.497,11.335 40.969,26.537 1.15,0.036 2.302,0.039 3.461,-0.175 C 92.286,27.952 75.536,15.973 55.718,15.281 27.728,14.303 4.248,36.2 3.27,64.191 c -0.976,27.986 20.918,51.469 48.909,52.447 7.593,0.264 14.851,-1.166 21.421,-3.935 -0.317,-0.983 -0.514,-2.108 -0.841,-3.215 -6.259,2.708 -13.198,4.106 -20.466,3.853 z"
           id="path3519" />
        <circle
           style="fill:#a0cd67"
           cx="53.730999"
           cy="66.165001"
           r="31.707001"
           id="circle3521" />
        <polygon
           style="fill:#ffffff;stroke:#a0cd67;stroke-width:2;stroke-miterlimit:6"
           stroke-miterlimit="6"
           points="76.945,117.38 70.471,71.832 105.654,42.521 59.554,49.034 24.387,0.38 36.933,59.85 1.44,89.211 47.575,82.561 "
           id="polygon3523" />
        <polygon
           style="fill:#4ba947"
           points="63.51,87.527 53.767,70.96 48.396,80.376 50.036,69.616 32.448,75.488 48.621,66.055 38.448,60.404 50.167,62.779 44.386,44.995 53.316,61.404 58.73,51.424 56.667,62.637 74.431,56.597 58.203,65.745 68.044,70.877 57.183,69.145 "
           id="polygon3525" />
      </g>
      <g
         id="OSGeo"
         transform="translate(0.6663461,6.2143761)">
        <path
           style="fill:#4ba947"
           d="m 105.382,52.167 c -3.566,4.801 -5.377,10.846 -5.377,17.969 0,7.563 1.772,13.854 5.276,18.698 3.521,4.875 8.465,7.349 14.698,7.349 6.825,0 12.143,-2.34 15.812,-6.949 3.649,-4.596 5.503,-11.021 5.503,-19.098 0,-7.886 -1.849,-14.123 -5.492,-18.546 -3.653,-4.443 -8.977,-6.696 -15.823,-6.696 -6.097,-10e-4 -11.004,2.449 -14.597,7.273 m 5.476,31.932 c -2.177,-3.713 -3.281,-8.412 -3.281,-13.963 0,-5.771 1.076,-10.388 3.192,-13.719 2.096,-3.295 5.197,-4.966 9.214,-4.966 9.245,0 13.737,6.11 13.737,18.685 0,6.166 -1.191,11.019 -3.538,14.416 -2.325,3.365 -5.758,5.07 -10.199,5.07 -3.904,-0.001 -6.973,-1.857 -9.125,-5.523"
           id="path3528" />
        <path
           style="fill:#4ba947"
           d="m 149.894,48.584 c -2.643,2.452 -3.98,5.586 -3.98,9.312 0,3.048 0.684,5.703 2.033,7.879 1.35,2.18 3.746,4.084 7.133,5.66 l 3.945,1.847 c 3.482,1.642 5.683,3.168 6.533,4.536 0.85,1.369 1.279,2.873 1.279,4.467 0,2.123 -0.768,3.895 -2.286,5.262 -1.521,1.376 -3.571,2.076 -6.103,2.076 -1.435,0 -3.084,-0.303 -4.91,-0.909 -1.825,-0.6 -3.366,-1.358 -4.583,-2.257 l -0.286,-0.211 -2.647,6.689 0.18,0.119 c 3.111,2.075 6.912,3.129 11.299,3.129 4.999,0 9.047,-1.319 12.041,-3.922 3.006,-2.609 4.531,-5.834 4.531,-9.584 0,-3.429 -0.694,-6.295 -2.068,-8.531 -1.375,-2.233 -3.789,-4.178 -7.174,-5.777 l -4.021,-1.91 c -2.563,-1.238 -4.279,-2.205 -5.094,-2.882 -0.803,-0.661 -1.439,-1.497 -1.888,-2.481 -0.452,-0.99 -0.681,-2.104 -0.681,-3.311 0,-1.949 0.635,-3.567 1.885,-4.805 1.25,-1.24 3.004,-1.867 5.205,-1.867 1.529,0 3.221,0.303 5.023,0.895 1.801,0.596 3.155,1.218 4.029,1.849 l 0.295,0.22 2.159,-6.354 -0.142,-0.119 c -2.168,-1.795 -6.043,-2.708 -11.521,-2.708 -4.12,-0.003 -7.551,1.239 -10.186,3.688"
           id="path3530" />
        <path
           style="fill:#4ba947"
           d="m 185.271,52.067 c -4.314,4.751 -6.504,11.029 -6.504,18.652 0,7.646 1.995,13.863 5.934,18.481 3.949,4.63 9.402,6.979 16.213,6.979 3.016,0 6.171,-0.477 9.371,-1.403 3.212,-0.933 5.754,-2.188 7.56,-3.724 l 0.099,-0.078 0,-21.769 -14.014,0 0,6.22 6.778,0 0,11.114 c -2.136,2.039 -4.954,3.082 -8.39,3.082 -4.91,0 -8.836,-1.713 -11.68,-5.099 -2.853,-3.396 -4.296,-7.95 -4.296,-13.532 0,-5.875 1.472,-10.656 4.379,-14.208 2.896,-3.539 6.901,-5.332 11.916,-5.332 3.152,0 6.425,1.243 9.726,3.688 l 0.261,0.192 3.013,-5.995 -0.16,-0.138 c -3.246,-2.854 -7.5,-4.305 -12.645,-4.305 -7.33,10e-4 -13.241,2.417 -17.561,7.175"
           id="path3532" />
        <path
           style="fill:#4ba947"
           d="m 229.144,63.144 c -3.63,3.61 -5.472,8.459 -5.472,14.418 0,5.744 1.796,10.377 5.334,13.787 3.185,3.092 7.104,4.66 11.661,4.66 3.143,0 6.027,-0.48 8.593,-1.435 2.052,-0.729 3.606,-1.61 4.612,-2.627 l 0.146,-0.147 -2.949,-5.039 -0.242,0.219 c -2.367,2.091 -5.366,3.152 -8.918,3.152 -3.104,0 -5.672,-0.968 -7.639,-2.871 -2.18,-2.142 -3.293,-5.246 -3.343,-9.209 l 25.761,0 0.055,-0.199 c 0.34,-1.203 0.512,-2.535 0.512,-3.959 0,-4.631 -1.443,-8.404 -4.299,-11.213 -2.939,-2.92 -7.049,-4.402 -12.207,-4.402 -4.451,-0.001 -8.351,1.638 -11.605,4.865 m 4.959,3.684 c 1.854,-1.771 4.188,-2.67 6.933,-2.67 2.938,0 5.293,0.914 6.991,2.722 1.486,1.596 2.227,3.617 2.285,5.969 l -19.154,0 c 0.291,-2.368 1.248,-4.411 2.945,-6.021"
           id="path3534" />
        <path
           style="fill:#4ba947"
           d="m 266.257,63.476 c -3.011,3.439 -4.538,8.008 -4.538,13.586 0,5.75 1.464,10.396 4.353,13.801 2.896,3.415 6.986,5.146 12.16,5.146 5.061,0 9.113,-1.714 12.059,-5.097 2.933,-3.373 4.418,-8.03 4.418,-13.853 0,-5.84 -1.452,-10.479 -4.318,-13.784 -2.877,-3.316 -6.965,-4.998 -12.156,-4.998 -4.929,10e-4 -8.96,1.75 -11.978,5.199 m 2.699,13.585 c 0,-4.08 0.856,-7.32 2.542,-9.631 1.67,-2.281 3.934,-3.438 6.734,-3.438 6.217,0 9.241,4.271 9.241,13.068 0,4.103 -0.834,7.377 -2.481,9.735 -1.622,2.324 -3.896,3.5 -6.76,3.5 -6.244,0.002 -9.276,-4.325 -9.276,-13.234"
           id="path3536" />
      </g>
      <path
         style="fill:#a0cd67"
         d="m 86.584,114.223 -0.869,4.748 -1.704,0 0.87,-4.748 -2.346,-8.445 1.779,0 1.172,4.459 c 0.208,0.779 0.378,1.543 0.53,2.285 l 0.019,0 c 0.437,-0.801 0.983,-1.658 1.532,-2.541 l 2.648,-4.203 1.91,0 -5.541,8.445 m 6.791,4.926 c -2.366,0 -3.444,-1.229 -3.444,-3.459 0,-3.871 2.382,-6.607 5.448,-6.607 2.479,0 3.499,1.445 3.499,3.498 -0.001,4.007 -2.67,6.568 -5.503,6.568 m 1.738,-8.58 c -2.061,0 -3.441,2.383 -3.441,4.828 0,1.445 0.569,2.248 1.986,2.248 1.834,0 3.443,-2.035 3.443,-4.869 0,-1.428 -0.625,-2.207 -1.988,-2.207 m 12.369,8.402 -1.663,0 c 0.132,-0.645 0.379,-1.758 1.038,-3.828 l -0.035,0 c -0.892,2.053 -2.365,4.025 -4.333,4.025 -1.739,0 -2.345,-1.271 -1.966,-3.303 l 1.21,-6.607 1.681,0 -1.151,6.215 c -0.285,1.525 -0.018,2.191 0.813,2.191 1.739,0 3.688,-3.814 4.124,-6.217 l 0.396,-2.189 1.664,0 -1.778,9.713 m 9.099,-8.187 c -1.738,-0.511 -3.593,3.303 -4.086,6.002 l -0.396,2.186 -1.666,0 1.777,-9.713 1.629,0 c -0.153,0.84 -0.416,1.875 -0.966,3.578 l 0.037,0.02 c 1.061,-2.365 2.197,-4.085 4.011,-3.773 l -0.34,1.7 m 9.364,8.385 c -3.084,0 -4.56,-1.798 -4.56,-4.81 0,-4.771 3.139,-8.775 7.301,-8.775 2.968,0 4.594,1.758 4.594,4.809 0,5.022 -3.29,8.776 -7.335,8.776 m 2.458,-12.004 c -3.024,0 -5.182,3.205 -5.182,6.942 0,2.13 1.019,3.457 2.968,3.457 2.894,0 5.259,-3.067 5.259,-6.979 0,-2.088 -0.982,-3.42 -3.045,-3.42 m 8.793,11.947 c -0.472,0 -0.89,-0.041 -1.324,-0.119 l -0.871,4.81 -1.662,0 2.665,-14.543 1.666,0 c -0.169,0.84 -0.416,1.799 -1.06,3.892 l 0.04,0.02 c 0.963,-2.288 2.44,-4.105 4.37,-4.105 1.358,0 2.098,0.9 2.098,2.951 -0.001,3.574 -1.801,7.094 -5.922,7.094 m 3.234,-8.543 c -1.777,0 -3.688,3.891 -4.124,6.176 l -0.15,0.744 c 0.397,0.135 0.965,0.232 1.363,0.232 2.763,0 3.876,-2.973 3.876,-5.374 10e-4,-1.27 -0.376,-1.778 -0.965,-1.778 m 5.789,4.121 c -0.057,0.297 -0.095,0.783 -0.095,1.135 0,1.506 0.511,1.896 2.024,1.896 0.888,0 1.835,-0.216 2.647,-0.564 l 0,1.408 c -0.908,0.369 -2.006,0.584 -3.234,0.584 -2.156,0 -3.158,-0.955 -3.158,-3.146 0,-3.774 2.024,-6.921 5.145,-6.921 2.005,0 2.761,1.057 2.761,2.209 0,2.092 -2.063,3.243 -6.09,3.399 m 3.139,-4.279 c -1.496,0 -2.497,1.352 -2.932,2.99 2.913,-0.117 4.2,-0.722 4.2,-1.896 0.001,-0.704 -0.511,-1.094 -1.268,-1.094 m 11.498,8.56 -1.661,0 1.151,-6.215 c 0.285,-1.524 0.021,-2.188 -0.83,-2.188 -1.741,0 -3.671,3.81 -4.104,6.217 l -0.397,2.186 -1.663,0 0.945,-5.081 c 0.244,-1.386 0.586,-3.206 0.828,-4.632 l 1.648,0 c -0.115,0.646 -0.378,1.758 -1.041,3.832 l 0.039,0 c 0.887,-2.053 2.383,-4.027 4.348,-4.027 1.739,0 2.328,1.271 1.969,3.303 l -1.232,6.605 m 14.677,-11.588 c -0.623,-0.234 -1.303,-0.314 -1.776,-0.314 -1.892,0 -2.742,1.115 -2.742,2.17 0,2.385 3.896,2.465 3.896,5.592 0,2.442 -2.082,4.34 -5.047,4.34 -0.683,0 -1.479,-0.079 -2.103,-0.274 l 0.321,-1.721 c 0.529,0.235 1.285,0.412 1.93,0.412 1.967,0 3.083,-0.998 3.083,-2.464 0,-2.286 -3.877,-2.307 -3.877,-5.473 0,-2.17 1.646,-4.065 4.709,-4.065 0.644,0 1.211,0.038 1.93,0.192 l -0.324,1.605 m 4.504,11.766 c -2.363,0 -3.444,-1.229 -3.444,-3.459 0,-3.871 2.386,-6.607 5.45,-6.607 2.479,0 3.498,1.445 3.498,3.498 0,4.007 -2.666,6.568 -5.504,6.568 m 1.74,-8.58 c -2.062,0 -3.443,2.383 -3.443,4.828 0,1.445 0.566,2.248 1.984,2.248 1.836,0 3.442,-2.035 3.442,-4.869 0.001,-1.428 -0.621,-2.207 -1.983,-2.207 m 12.369,8.402 -1.664,0 c 0.134,-0.645 0.38,-1.758 1.04,-3.828 l -0.038,0 c -0.889,2.053 -2.364,4.025 -4.329,4.025 -1.744,0 -2.349,-1.271 -1.969,-3.303 l 1.209,-6.607 1.684,0 -1.152,6.215 c -0.283,1.525 -0.02,2.191 0.816,2.191 1.736,0 3.688,-3.814 4.121,-6.217 l 0.396,-2.189 1.666,0 -1.78,9.713 m 9.079,-8.187 c -1.738,-0.511 -3.593,3.303 -4.088,6.002 l -0.393,2.186 -1.668,0 1.778,-9.713 1.627,0 c -0.151,0.84 -0.417,1.875 -0.965,3.578 l 0.037,0.02 c 1.06,-2.365 2.194,-4.085 4.011,-3.773 l -0.339,1.7 m 7.224,0.135 c -0.512,-0.235 -1.058,-0.372 -1.723,-0.372 -2.382,0 -3.497,2.775 -3.497,4.986 0,1.014 0.319,2.053 1.968,2.053 0.735,0 1.529,-0.178 2.118,-0.469 l -0.114,1.543 c -0.66,0.254 -1.531,0.468 -2.479,0.468 -2.438,0 -3.271,-1.366 -3.271,-3.204 0,-3.714 2.024,-6.822 5.39,-6.822 0.776,0 1.399,0.117 1.987,0.291 l -0.379,1.526 m 2.666,3.771 c -0.057,0.297 -0.094,0.783 -0.094,1.135 0,1.506 0.51,1.896 2.026,1.896 0.884,0 1.831,-0.216 2.646,-0.564 l 0,1.408 c -0.906,0.369 -2.005,0.584 -3.234,0.584 -2.154,0 -3.156,-0.955 -3.156,-3.146 0,-3.774 2.021,-6.921 5.143,-6.921 2.006,0 2.762,1.057 2.762,2.209 -0.001,2.092 -2.063,3.243 -6.093,3.399 m 3.141,-4.279 c -1.494,0 -2.496,1.352 -2.932,2.99 2.91,-0.117 4.198,-0.722 4.198,-1.896 0,-0.704 -0.51,-1.094 -1.266,-1.094 m 18.214,-2.717 c -0.89,-0.332 -1.778,-0.469 -2.649,-0.469 -3.705,0 -5.199,3.753 -5.199,7.076 0,1.896 0.758,3.227 3.215,3.227 1.06,0 2.099,-0.234 2.97,-0.646 l -0.076,1.623 c -1.019,0.391 -2.212,0.624 -3.401,0.624 -3.65,0 -4.598,-2.208 -4.598,-4.533 0,-4.614 2.514,-8.936 7.337,-8.936 1.078,0 1.986,0.158 2.818,0.395 l -0.417,1.639 m 3.653,11.455 c -2.366,0 -3.443,-1.229 -3.443,-3.459 0,-3.871 2.382,-6.607 5.447,-6.607 2.477,0 3.498,1.445 3.498,3.498 0,4.007 -2.664,6.568 -5.502,6.568 m 1.736,-8.58 c -2.061,0 -3.439,2.383 -3.439,4.828 0,1.445 0.564,2.248 1.982,2.248 1.838,0 3.442,-2.035 3.442,-4.869 0.001,-1.428 -0.62,-2.207 -1.985,-2.207 m 18.083,8.402 -1.684,0 1.153,-6.215 c 0.285,-1.524 0.02,-2.209 -0.756,-2.209 -1.608,0 -3.574,3.599 -4.066,6.238 l -0.396,2.186 -1.664,0 1.152,-6.215 c 0.284,-1.524 0.037,-2.209 -0.775,-2.209 -1.589,0 -3.556,3.599 -4.048,6.238 l -0.397,2.186 -1.661,0 0.942,-5.081 c 0.267,-1.446 0.588,-3.206 0.832,-4.632 l 1.646,0 c -0.111,0.646 -0.379,1.779 -1.041,3.832 l 0.039,0 c 0.867,-2.033 2.344,-4.027 4.273,-4.027 1.211,0 1.893,0.684 1.893,1.895 0,0.606 -0.152,1.175 -0.454,2.15 l 0.037,0.021 c 0.87,-2.091 2.346,-4.064 4.274,-4.064 1.703,0 2.289,1.271 1.908,3.304 l -1.207,6.602 m 5.808,0.141 c -0.473,0 -0.892,-0.041 -1.323,-0.119 l -0.872,4.81 -1.663,0 2.668,-14.543 1.661,0 c -0.167,0.84 -0.416,1.799 -1.057,3.892 l 0.035,0.02 c 0.967,-2.288 2.44,-4.105 4.371,-4.105 1.36,0 2.098,0.9 2.098,2.951 0,3.574 -1.795,7.094 -5.918,7.094 m 3.234,-8.543 c -1.779,0 -3.689,3.891 -4.126,6.176 l -0.151,0.744 c 0.397,0.135 0.968,0.232 1.363,0.232 2.764,0 3.879,-2.973 3.879,-5.374 0,-1.27 -0.379,-1.778 -0.965,-1.778 m 11.026,8.402 -1.684,0 c 0.172,-0.837 0.529,-2.129 1.099,-3.947 l -0.039,-0.017 c -0.681,1.503 -2.101,4.162 -4.386,4.162 -1.362,0 -2.103,-0.9 -2.103,-2.952 0,-3.579 1.796,-7.115 5.901,-7.115 1.076,0 2.078,0.117 2.951,0.295 -1.001,5.434 -1.343,7.25 -1.739,9.574 m -1.495,-8.48 c -2.798,0 -3.896,2.988 -3.896,5.394 0,1.272 0.381,1.78 0.965,1.78 1.776,0 3.707,-3.891 4.142,-6.217 l 0.136,-0.778 c -0.382,-0.101 -0.815,-0.179 -1.347,-0.179 m 10.102,0.156 c -0.457,-0.156 -0.945,-0.236 -1.416,-0.236 -1.232,0 -1.877,0.605 -1.877,1.429 0,1.545 2.855,1.952 2.855,4.146 0,1.62 -1.379,3.166 -4.047,3.166 -0.624,0 -1.137,-0.037 -1.607,-0.139 l 0.303,-1.563 c 0.492,0.154 1,0.254 1.531,0.254 1.229,0 2.061,-0.508 2.061,-1.524 0,-1.543 -2.836,-1.8 -2.836,-4.146 0,-1.664 1.287,-2.951 3.727,-2.951 0.663,0 1.137,0.06 1.609,0.138 l -0.303,1.426 m 7.112,0 c -0.456,-0.156 -0.945,-0.236 -1.421,-0.236 -1.229,0 -1.872,0.605 -1.872,1.429 0,1.545 2.855,1.952 2.855,4.146 0,1.62 -1.379,3.166 -4.045,3.166 -0.625,0 -1.139,-0.037 -1.61,-0.139 l 0.305,-1.563 c 0.49,0.154 1.002,0.254 1.529,0.254 1.229,0 2.063,-0.508 2.063,-1.524 0,-1.543 -2.84,-1.8 -2.84,-4.146 0,-1.664 1.288,-2.951 3.727,-2.951 0.664,0 1.136,0.06 1.607,0.138 l -0.298,1.426"
         id="path3538" />
    </g>
  </g>
</svg>
