<?xml version="1.0" encoding="UTF-8"?>
<!-- Generator: Adobe Illustrator 13.0.0, SVG Export Plug-In . SVG Version: 6.00 Build 14948)  -->
<!DOCTYPE svg PUBLIC "-//W3C//DTD SVG 1.1//EN" "http://www.w3.org/Graphics/SVG/1.1/DTD/svg11.dtd">
<svg version="1.1" id="Layer_1" xmlns="http://www.w3.org/2000/svg" xmlns:xlink="http://www.w3.org/1999/xlink" x="0px" y="0px" width="271.295px" height="271.295px" viewBox="0 0 271.295 271.295" enable-background="new 0 0 271.295 271.295" xml:space="preserve">
<g>
	<path fill="none" stroke="#000000" stroke-width="2.0001" stroke-miterlimit="2.6131" d="M135.938,37.377   c54.125,0,98.27,44.145,98.27,98.27c0,54.125-44.145,98.27-98.27,98.27s-98.27-44.145-98.27-98.27   C37.668,81.522,81.813,37.377,135.938,37.377L135.938,37.377z"/>
	<path fill="none" stroke="#000000" stroke-width="3.9997" stroke-miterlimit="2.6131" d="M135.647,2   c73.611,0,133.648,60.037,133.648,133.647c0,73.611-60.037,133.648-133.648,133.648C62.037,269.295,2,209.258,2,135.647   C2,62.037,62.037,2,135.647,2L135.647,2z"/>
	<path fill="none" stroke="#000000" stroke-width="2.0001" stroke-miterlimit="2.6131" d="M59.2,74.923L93.895,75.1v-4.458   l9.062-0.439l33.663-27.04l35.964,27.909l7.813,0.177l-0.045,4.284l32.775-0.19 M56.104,78.951l37.979,0.066 M41.971,108.358   l53.218-0.171 M179.777,79.991l37.402-0.222 M178.051,108.188l52.562,0.288 M177.763,140.987l56.968,0.288 M178.338,176.089   l46.602,0.575 M46.263,175.226l48.638,0.288 M38.22,140.124l56.68,0.288 M177.62,84.316l0.431,130.614 M94.9,83.156l1.151,130.623    M172.584,84.171l0.575,107.167 M100.367,83.156L100.08,191.05 M100.367,108.188l72.505,0.288 M100.655,140.412l72.217,0.863    M102.672,75.53l34.235-27.763L172.445,76.1 M49.518,181.843l45.958-0.287 M178.051,182.419l44.596,0.575 M100.655,175.226   l72.792,0.575 M95.793,190.763l15.377,0.19 M161.973,191.531l16.186,0.221 M115.616,207.737l42.059,0.44 M69.644,207.737h22.379    M182.079,208.601l18.701,0.288 M111.588,214.067l-0.575-31.648h4.028l6.905-6.618 M161.938,214.067l-0.288-31.361h-3.164   l-7.769-6.33 M151.225,208.06l-0.702-32.327 M122.199,208.152l-0.185-31.902 M125.739,207.739l0.007-31.842 M147.173,207.837   l-0.29-31.939 M125.969,181.746l20.92,0.097 M150.649,183.121l6.974,5.052 M115.616,187.31l6.237-4.799 M62.693,200.999l28.916,0.6    M115.261,202.175l42.64,0.551 M182.014,202.655l26.247-0.385 M91.448,182.131l0.576,31.937l23.305,0.288l-0.288-31.649    M157.91,182.706l-0.287,31.937l24.49,0.068l-0.322-32.005"/>
	<path fill="none" stroke="#000000" stroke-width="1.0001" stroke-miterlimit="2.6131" d="M96.339,210.614l14.673,0.288    M96.051,207.162l14.674,0.288 M96.339,203.997l14.673,0.575 M96.051,201.408l15.249,0.287 M95.764,198.818l14.961,0.288    M96.339,196.482l14.742-0.059 M96.051,193.927h14.961"/>
	<path fill="none" stroke="#000000" stroke-width="1.0001" stroke-miterlimit="2.6131" d="M177.145,211.742l-14.674,0.287    M177.433,208.289l-14.674,0.288 M177.145,205.124l-14.674,0.576 M177.433,202.535l-15.249,0.287 M177.72,199.945l-14.961,0.288    M177.145,197.609l-14.742-0.058 M177.433,195.054h-14.962"/>
	<path fill="none" stroke="#000000" stroke-width="1.0001" stroke-miterlimit="2.6131" d="M126.235,178.814l20.017,0.053    M130.704,179.032l0.107,2.46 M134.757,179.14l0.267,2.353 M138.864,179.086l0.214,2.62v-0.16 M142.332,179.086l0.319,2.674    M132.464,176.091l0.053,2.567 M136.678,176.144l0.106,2.621 M140.731,176.037l0.054,2.621 M143.611,176.144l0.214,2.675    M128.73,175.983v2.675 M107.175,72.481l-0.222,6.982 M111.054,68.935l0.222,7.98 M115.155,65.831l0.111,7.315 M119.034,62.506   l-0.11,7.426 M122.692,59.514v7.647 M126.35,56.743l0.111,6.54 M130.34,53.418l-0.111,6.872 M134.219,50.425l0.111,6.428    M139.206,49.982l0.111,7.204 M143.196,53.307l0.111,6.761 M147.297,56.743l0.111,6.65 M151.509,60.068v6.872 M155.721,63.726   l-0.11,6.207 M159.676,66.58v6.096 M163.923,69.614v6.096 M167.802,72.98l0.11,5.985"/>
	<path fill="none" stroke="#000000" stroke-width="2.0001" stroke-miterlimit="2.6131" d="M171.494,78.161   c-1.593,1.281-1.458,4.125,0.11,5.439c1.568,1.313,5.188,1.683,6.824,0.367c1.636-1.316,1.498-4.418-0.111-5.765   C176.709,76.855,173.087,76.88,171.494,78.161L171.494,78.161z"/>
	<path fill="none" stroke="#000000" stroke-width="2.0001" stroke-miterlimit="2.6131" d="M101.441,77.434   c1.593,1.281,1.458,4.125-0.111,5.438c-1.568,1.313-5.188,1.683-6.824,0.367s-1.498-4.417,0.111-5.764   S99.849,76.153,101.441,77.434L101.441,77.434z"/>
	<path fill="none" stroke="#000000" stroke-width="1.0001" stroke-miterlimit="2.6131" d="M180.223,82.567   c1.034,1.293,1.034,3.399,3.103,3.879c2.069,0.48,1.661-3.99,3.325-3.99c1.665,0,1.152,3.548,2.771,3.658   c1.618,0.109,1.159-3.547,2.659-3.547c1.501,0,1.304,3.436,2.771,3.436c1.467,0,1.479-3.262,2.882-3.325   c1.403-0.063,1.419,3.348,2.771,3.436s0.946-3.598,2.438-3.547s1.335,3.875,2.992,3.657c1.657-0.217,1.688-3.733,3.325-3.879   c1.638-0.146,1.53,3.545,2.993,3.657c1.462,0.112,1.588-3.698,3.103-3.436c1.516,0.262,1.213,3.769,2.771,3.769   c1.558-0.001,1.256-0.85,1.773-1.884"/>
	<path fill="none" stroke="#000000" stroke-width="1.0001" stroke-miterlimit="2.6131" d="M93.043,82.124   c-1.035,1.293-1.035,3.399-3.103,3.879c-2.069,0.48-1.661-3.99-3.325-3.99c-1.665,0-1.152,3.548-2.771,3.658   c-1.619,0.109-1.16-3.547-2.66-3.547c-1.5,0-1.303,3.436-2.771,3.436s-1.479-3.262-2.882-3.325   c-1.403-0.063-1.419,3.348-2.771,3.436s-0.946-3.598-2.438-3.547c-1.492,0.051-1.335,3.875-2.992,3.657   c-1.657-0.217-1.688-3.733-3.325-3.879c-1.637-0.146-1.53,3.545-2.993,3.657c-1.462,0.112-1.588-3.698-3.103-3.436   s-1.213,3.769-2.771,3.769c-1.558-0.001-1.256-0.85-1.773-1.884"/>
	<path fill="none" stroke="#000000" stroke-width="2.0001" stroke-miterlimit="2.6131" d="M185.313,108.503l-0.11-13.411   c0.073-1.552,1.137-2.933,3.324-2.882c2.188,0.051,3.88,1.256,3.88,3.104l0.11,13.189 M181.102,94.87   c1.663-2.956,4.3-5.811,7.537-5.764s5.874,2.956,7.647,6.317 M206.913,108.503l-0.11-13.411c0.074-1.552,1.138-2.933,3.325-2.882   c2.188,0.051,3.879,1.256,3.879,3.104l0.111,13.189 M202.702,94.87c1.662-2.956,4.3-5.811,7.536-5.764   c3.237,0.047,5.875,2.956,7.647,6.317 M206.271,140.777l-0.111-13.411c0.074-1.552,1.138-2.933,3.325-2.882   c2.188,0.051,3.879,1.257,3.879,3.104l0.111,13.189 M202.059,127.145c1.662-2.955,4.3-5.81,7.536-5.763   c3.237,0.046,5.875,2.956,7.648,6.317 M185.442,140.906l-0.111-13.411c0.074-1.552,1.138-2.933,3.325-2.882s3.88,1.256,3.88,3.104   l0.11,13.189 M181.23,127.273c1.663-2.956,4.3-5.811,7.537-5.764c3.236,0.047,5.874,2.956,7.647,6.318 M185.185,176.263   l-0.11-17.271c0.074-1.552,1.138-2.934,3.325-2.882c2.188,0.051,3.879,1.256,3.879,3.103l0.239,16.793 M180.974,158.641   c1.662-2.956,4.3-5.811,7.536-5.764c3.237,0.047,5.874,2.956,7.647,6.317 M206.656,176.392l-0.239-17.272   c0.073-1.552,1.137-2.933,3.324-2.882c2.188,0.052,3.88,1.257,3.88,3.104l-0.019,17.308 M202.315,158.897   c1.663-2.955,4.3-5.81,7.537-5.763c3.237,0.046,5.874,2.955,7.647,6.317 M227.227,171.78l-0.11-11.76   c0.073-1.552,1.304-3.599,4.323-2.882 M223.015,159.799c1.663-2.956,4.633-7.142,9.201-5.598 M227.098,141.543l-0.11-13.411   c0.074-1.552,1.138-2.933,3.325-2.882s2.687,0.881,3.519,2.563 M222.886,127.91c1.663-2.956,4.301-5.811,7.537-5.764   c3.237,0.047,2.171,0.725,2.839,1.218 M81.41,140.185l-0.111-13.411c0.074-1.552,1.138-2.933,3.325-2.882s3.879,1.256,3.879,3.104   l0.111,13.189 M77.198,126.552c1.663-2.956,4.3-5.811,7.537-5.764s5.874,2.956,7.647,6.318 M81.193,108.503l-0.111-13.411   c0.074-1.552,1.138-2.933,3.325-2.882c2.188,0.051,3.879,1.256,3.879,3.104l0.111,13.189 M76.981,94.87   c1.663-2.956,4.3-5.811,7.537-5.764c3.237,0.047,5.875,2.956,7.648,6.317 M60.812,108.503l-0.111-13.411   c0.074-1.552,1.138-2.933,3.325-2.882c2.188,0.051,3.879,1.256,3.879,3.104l0.111,13.189 M56.6,94.87   c1.663-2.956,4.3-5.811,7.537-5.764c3.237,0.047,5.874,2.956,7.647,6.317 M61.473,139.963l-0.111-13.411   c0.074-1.552,1.138-2.933,3.325-2.882s3.879,1.256,3.879,3.104l0.111,13.189 M57.261,126.33c1.662-2.956,4.3-5.811,7.537-5.764   s5.874,2.956,7.647,6.318 M40.648,139.298l-0.111-13.411c0.074-1.552,1.138-2.933,3.325-2.882c2.188,0.051,3.879,1.256,3.879,3.104   l0.111,13.189 M38.875,122.562c0.776-0.96,1.862-2.707,5.099-2.66s5.874,2.956,7.647,6.318 M40.853,160.667l0.461-2.003   c0.074-1.552,1.138-2.592,3.325-2.541s3.879,1.257,3.879,3.104l0.333,16.293 M39.983,155.569c1.552-1.404,1.529-2.597,4.766-2.55   s5.874,2.956,7.647,6.318 M61.029,175.187l-0.222-16.07c0.074-1.552,1.138-2.934,3.325-2.882c2.188,0.051,3.879,1.256,3.879,3.104   l0.333,15.738 M56.707,158.895c1.662-2.956,4.3-5.811,7.537-5.764s5.874,2.955,7.647,6.317 M82.19,175.52l-0.333-17.29   c0.074-1.552,1.137-2.934,3.325-2.882c2.188,0.051,3.879,1.256,3.879,3.103l0.333,17.069 M77.757,158.008   c1.663-2.956,4.3-5.811,7.537-5.764c3.237,0.047,5.875,2.956,7.648,6.317 M81.636,201.216l-0.111-10.64   c0.074-1.552,1.137-2.933,3.325-2.882c2.188,0.051,3.879,1.256,3.879,3.104l-0.111,10.64 M61.477,199.55v-9.311   c0.074-1.552,1.137-2.933,3.325-2.882c2.187,0.051,3.879,1.256,3.879,3.104l0.111,10.751 M206.656,202.481l-0.239-10.579   c0.073-1.552,1.137-2.933,3.324-2.882s3.88,1.256,3.88,3.104l0.02,3.788 M185.571,202.481l0.018-10.708   c0.074-1.552,1.138-2.933,3.325-2.882s3.879,1.257,3.879,3.104l-0.018,10.615 M130.962,108.625   c0.043-4.676,0.086-8.064,0.128-12.74c0.082-1.779,1.638-3.248,2.96-3.218c1.323,0.03,3.261,1.201,3.347,2.832   c0-1.673,1.41-2.805,3.088-2.703s3.175,1.845,3.218,3.346v12.354 M127.874,94.34c1.03-2.616,2.435-5.265,4.891-5.405   c2.456-0.14,1.681,2.115,4.375,2.188c2.694,0.073,1.874-2.219,4.504-2.316c2.631-0.098,3.218,2.445,4.633,4.633 M137.525,108.368   l-0.128-13.513 M155.136,109.011c0.044-4.676,0.086-8.065,0.129-12.741c0.082-1.779,1.638-3.248,2.96-3.217   s3.261,1.201,3.347,2.832c0-1.673,1.41-2.805,3.088-2.703c1.678,0.103,3.175,1.845,3.218,3.346v12.354 M152.048,94.726   c1.029-2.617,2.435-5.265,4.89-5.405c2.456-0.14,1.682,2.115,4.376,2.188s1.874-2.219,4.504-2.316   c2.631-0.098,3.218,2.445,4.633,4.633 M161.699,108.754l-0.128-13.513 M105.766,108.754c0.043-4.676,0.086-8.064,0.129-12.741   c0.082-1.779,1.638-3.248,2.96-3.217s3.26,1.201,3.346,2.831c0-1.673,1.411-2.805,3.089-2.703c1.678,0.103,3.174,1.845,3.217,3.346   v12.354 M102.677,94.469c1.029-2.617,2.434-5.265,4.89-5.405c2.456-0.14,1.681,2.115,4.375,2.188s1.874-2.219,4.504-2.316   s3.217,2.445,4.633,4.633 M112.329,108.496L112.2,94.983"/>
	<path fill-rule="evenodd" clip-rule="evenodd" stroke="#000000" stroke-width="0.216" stroke-miterlimit="2.6131" d="   M129.804,140.412v-16.086c0.3-1.587,1.651-4.941,6.95-4.891c5.298,0.051,6.691,4.247,6.82,5.792l0.258,15.7l-1.416-0.257   l-0.258-15.701c-0.171-0.772-0.79-1.903-2.316-1.931c-1.525-0.027-2.573,0.944-2.444,2.316l0.257,15.443l-1.158-0.128   l-0.257-15.701c-0.129-1.244-0.829-2.007-2.316-2.059s-2.573,0.743-2.916,1.858l0.143,15.801L129.804,140.412L129.804,140.412z"/>
	<path fill="none" stroke="#000000" stroke-width="2.0001" stroke-miterlimit="2.6131" d="M127.102,123.811   c1.33-3.475,3.813-7.234,9.395-7.335c5.581-0.102,8.708,4.333,9.78,7.464"/>
	<path fill-rule="evenodd" clip-rule="evenodd" stroke="#000000" stroke-width="0.216" stroke-miterlimit="2.6131" d="   M167.233,140.67v-16.087c-0.301-1.587-1.651-4.941-6.949-4.891c-5.298,0.051-6.578,3.962-6.707,5.506l-0.144,15.586l1.188,0.143   l0.258-15.7c0.172-0.772,0.791-1.903,2.316-1.931c1.525-0.027,2.671,0.848,2.542,2.22l0.032,15.54l1.158,0.064l-0.129-15.894   c0.129-1.244,0.829-2.007,2.316-2.059c1.487-0.052,2.521,0.687,2.864,1.802l0.198,15.739L167.233,140.67L167.233,140.67z"/>
	<path fill="none" stroke="#000000" stroke-width="2.0001" stroke-miterlimit="2.6131" d="M169.936,124.068   c-1.33-3.475-3.813-7.234-9.395-7.335c-5.581-0.102-8.708,4.333-9.78,7.464"/>
	<path fill-rule="evenodd" clip-rule="evenodd" stroke="#000000" stroke-width="0.216" stroke-miterlimit="2.6131" d="   M167.877,175.383v-16.087c-0.301-1.587-1.651-4.941-6.949-4.891c-5.298,0.052-6.692,4.247-6.821,5.792l-0.257,15.7l1.415-0.258   l0.258-15.7c0.171-0.772,0.888-2.193,2.413-2.221c1.525-0.026,2.573,0.751,2.445,2.124l0.129,15.926l1.062-0.129l-0.129-15.7   c0.129-1.244,0.926-2.104,2.413-2.155c1.487-0.053,2.327,0.783,2.67,1.898l0.033,16.086L167.877,175.383L167.877,175.383z"/>
	<path fill="none" stroke="#000000" stroke-width="2.0001" stroke-miterlimit="2.6131" d="M170.579,158.781   c-1.33-3.475-3.813-7.234-9.395-7.335c-5.581-0.102-8.708,4.332-9.78,7.464"/>
	<path fill-rule="evenodd" clip-rule="evenodd" stroke="#000000" stroke-width="0.216" stroke-miterlimit="2.6131" d="   M105.501,175.512v-16.087c0.301-1.587,1.651-4.941,6.95-4.891c5.298,0.051,6.692,4.247,6.82,5.791l0.258,15.701l-1.416-0.258   l-0.257-15.7c-0.171-0.772-0.791-1.903-2.316-1.931c-1.525-0.027-2.574,0.944-2.445,2.316l0.258,15.443l-1.159-0.129l-0.257-15.7   c-0.128-1.244-0.829-2.008-2.316-2.06c-1.487-0.052-2.617,0.88-2.96,1.995l0.161,15.217L105.501,175.512L105.501,175.512z"/>
	<path fill="none" stroke="#000000" stroke-width="2.0001" stroke-miterlimit="2.6131" d="M102.799,158.91   c1.33-3.475,3.813-7.234,9.395-7.336c5.582-0.102,8.708,4.333,9.781,7.465"/>
	<path fill-rule="evenodd" clip-rule="evenodd" stroke="#000000" stroke-width="0.216" stroke-miterlimit="2.6131" d="   M105.63,140.798v-16.086c0.3-1.587,1.651-4.941,6.949-4.891s6.692,4.247,6.821,5.791l0.257,15.244l-1.245-0.144l-0.143-15.129   c-0.171-0.772-1.076-2.131-2.602-2.159c-1.526-0.027-2.574,0.944-2.445,2.316l0.257,15.443l-1.158-0.129l-0.257-15.701   c-0.129-1.244-0.829-2.007-2.316-2.059c-1.488-0.052-2.617,0.88-2.96,1.995l0.064,15.217L105.63,140.798L105.63,140.798z"/>
	<path fill="none" stroke="#000000" stroke-width="2.0001" stroke-miterlimit="2.6131" d="M102.928,124.197   c1.33-3.475,3.813-7.234,9.395-7.335s8.708,4.333,9.781,7.464 M130.705,175.417l-0.129-16.602 M143.317,175.288v-16.73    M128.389,158.172l4.504-0.258c0.129-2.016,0.596-5.851,3.861-5.662c3.265,0.188,4.375,3.475,4.504,5.791l4.118,0.258l-0.258-5.663   l-8.107-6.691l-8.622,6.82V158.172L128.389,158.172z M137.143,69.003c2.548,0,4.627,2.078,4.627,4.627   c0,2.548-2.079,4.627-4.627,4.627c-2.549,0-4.627-2.079-4.627-4.627C132.516,71.081,134.594,69.003,137.143,69.003L137.143,69.003z    M171.6,75.779l8.892-0.312 M94.092,75.198l9.328,0.021"/>
	<path fill-rule="evenodd" clip-rule="evenodd" d="M53.913,225.771c-0.605,0.565-0.984,1.003-1.147,1.317   c-0.159,0.311-0.221,0.649-0.187,1.015c0.017,0.29,0.133,0.61,0.35,0.968c0.006,0.008,0.013,0.015,0.02,0.021   c0.138,0.203,0.203,0.351,0.2,0.451c0,0.098-0.05,0.19-0.148,0.281c-0.094,0.088-0.186,0.121-0.273,0.105   c-0.09-0.021-0.205-0.109-0.351-0.266c-0.052-0.056-0.265-0.319-0.64-0.797c-0.374-0.478-0.739-0.904-1.096-1.287   c-0.601-0.645-1.223-1.249-1.857-1.81c-0.124-0.105-0.189-0.162-0.202-0.176c-0.081-0.101-0.125-0.196-0.131-0.287   c-0.011-0.088,0.022-0.165,0.088-0.227c0.098-0.091,0.2-0.128,0.317-0.113c0.114,0.011,0.272,0.097,0.479,0.249   c0.04,0.016,0.093,0.037,0.166,0.073c0.288,0.135,0.518,0.207,0.693,0.213c0.27,0.003,0.569-0.095,0.893-0.292   c0.327-0.194,0.764-0.55,1.313-1.063l5.121-4.775c1.414-1.317,2.365-2.309,2.852-2.965c0.484-0.653,0.813-1.305,0.991-1.952   c0.217-0.841,0.187-1.704-0.098-2.59c-0.283-0.883-0.799-1.722-1.542-2.52c-0.792-0.85-1.599-1.457-2.421-1.829   s-1.683-0.514-2.578-0.427c-0.693,0.073-1.396,0.318-2.104,0.731c-0.708,0.413-1.762,1.272-3.161,2.577l-0.275,0.257l-5.01,4.671   c-0.578,0.539-0.95,0.971-1.113,1.298c-0.17,0.328-0.229,0.689-0.183,1.096c0.021,0.155,0.063,0.318,0.135,0.479   c0.072,0.167,0.173,0.353,0.311,0.569c0.15,0.218,0.232,0.376,0.246,0.48c0.013,0.098-0.023,0.191-0.104,0.266   c-0.108,0.101-0.21,0.145-0.311,0.127c-0.097-0.014-0.229-0.112-0.394-0.289c-0.139-0.15-0.366-0.428-0.674-0.836   c-0.313-0.411-0.578-0.73-0.792-0.96c-0.418-0.449-0.901-0.911-1.44-1.384c-0.173-0.145-0.274-0.232-0.307-0.268   c-0.088-0.094-0.132-0.183-0.132-0.267c-0.004-0.081,0.036-0.157,0.112-0.229c0.094-0.088,0.194-0.135,0.305-0.141   c0.111-0.007,0.281,0.057,0.522,0.189c0.189,0.091,0.341,0.156,0.461,0.188s0.237,0.053,0.358,0.057   c0.296,0.017,0.588-0.054,0.88-0.208c0.292-0.162,0.725-0.507,1.303-1.046l4.63-4.317c1.762-1.643,3.082-2.712,3.965-3.209   c0.883-0.498,1.772-0.787,2.67-0.863c1.122-0.089,2.2,0.083,3.235,0.53c1.039,0.443,2.004,1.145,2.896,2.102   c0.938,1.006,1.621,2.01,2.047,3.012s0.591,1.994,0.489,2.98c-0.083,0.93-0.394,1.818-0.922,2.669   c-0.528,0.851-1.572,2-3.131,3.454L53.913,225.771L53.913,225.771z M48.509,203.214l-6.427,3.736   c-0.154,0.085-0.325,0.18-0.497,0.282c-0.176,0.104-0.426,0.261-0.75,0.463c-1.102,0.688-1.907,1.304-2.408,1.841   c-0.505,0.54-0.823,1.109-0.962,1.713c-0.096,0.43-0.069,0.913,0.073,1.446c0.143,0.534,0.127,0.859-0.046,0.968   c-0.101,0.063-0.191,0.08-0.274,0.047c-0.082-0.033-0.177-0.131-0.293-0.3c-0.025-0.04-0.103-0.183-0.231-0.433   c-0.126-0.247-0.246-0.465-0.359-0.646l-0.406-0.649c-0.148-0.238-0.229-0.412-0.246-0.521c-0.015-0.113,0.006-0.25,0.057-0.411   l5.743-19.652c0.026-0.128,0.043-0.218,0.047-0.266c0.002-0.051-0.006-0.091-0.019-0.111c-0.015-0.023-0.064-0.021-0.136,0.007   c-0.076,0.03-0.184,0.093-0.325,0.181l-8.255,5.158c-1.227,0.767-2.063,1.379-2.499,1.831c-0.433,0.456-0.654,0.902-0.663,1.346   c0.001,0.37,0.092,0.813,0.263,1.328c0.175,0.515,0.183,0.823,0.026,0.922c-0.085,0.053-0.179,0.072-0.279,0.056   c-0.093-0.014-0.166-0.059-0.208-0.127c-0.031-0.049-0.147-0.307-0.348-0.781c-0.199-0.472-0.427-0.907-0.679-1.311   c-0.28-0.448-0.617-0.917-1.012-1.395c-0.396-0.481-0.613-0.756-0.653-0.821c-0.085-0.153-0.128-0.285-0.125-0.398   c0.004-0.109,0.048-0.192,0.132-0.245c0.089-0.056,0.17-0.078,0.246-0.064c0.081,0.012,0.196,0.08,0.351,0.202   c0,0,0.009,0.006,0.027,0.017c0.186,0.153,0.354,0.262,0.506,0.307c0.333,0.101,0.727,0.085,1.178-0.046   c0.452-0.131,0.963-0.372,1.541-0.732l13.317-8.321c0.259-0.161,0.44-0.247,0.549-0.253c0.104-0.004,0.19,0.044,0.253,0.145   c0.035,0.057,0.051,0.137,0.05,0.232c-0.003,0.104-0.031,0.238-0.082,0.399l-5.507,18.528c-0.029,0.098-0.046,0.187-0.063,0.27   c-0.013,0.086-0.017,0.134-0.012,0.142c0.025,0.041,0.07,0.058,0.136,0.056s0.141-0.026,0.234-0.073l8.671-5.121   c0.133-0.083,0.31-0.188,0.528-0.313c0.219-0.125,0.371-0.215,0.456-0.268c0.662-0.414,1.096-0.78,1.298-1.104   c0.201-0.316,0.28-0.719,0.237-1.209c-0.021-0.205-0.106-0.467-0.263-0.789l-0.015-0.024c-0.098-0.192-0.142-0.327-0.136-0.415   s0.058-0.159,0.15-0.217c0.117-0.074,0.218-0.092,0.305-0.051c0.087,0.041,0.201,0.178,0.35,0.415   c0.083,0.134,0.298,0.521,0.641,1.16c0.35,0.641,0.667,1.194,0.965,1.671c0.172,0.274,0.381,0.564,0.625,0.872   c0.247,0.307,0.386,0.483,0.416,0.532c0.073,0.117,0.106,0.214,0.093,0.283c-0.006,0.071-0.051,0.134-0.132,0.185   c-0.19,0.118-0.442,0.057-0.756-0.186l-0.007-0.012c-0.018-0.012-0.03-0.021-0.035-0.028c-0.219-0.189-0.399-0.324-0.547-0.399   c-0.79-0.394-2.026-0.099-3.7,0.886C48.57,203.177,48.533,203.199,48.509,203.214L48.509,203.214z M38.76,185.425l-11.019,5.614   c-0.721,0.367-1.202,0.683-1.44,0.948c-0.245,0.264-0.396,0.586-0.458,0.976c-0.066,0.279-0.032,0.642,0.093,1.074   c0.004,0.009,0.008,0.018,0.013,0.026c0.072,0.246,0.095,0.416,0.074,0.512c-0.027,0.095-0.094,0.171-0.213,0.231   c-0.123,0.063-0.231,0.07-0.315,0.021c-0.089-0.05-0.182-0.169-0.279-0.359c-0.03-0.06-0.163-0.382-0.397-0.979   s-0.479-1.14-0.734-1.64c-0.448-0.878-0.931-1.711-1.445-2.501c-0.093-0.14-0.145-0.221-0.157-0.246   c-0.061-0.118-0.074-0.229-0.05-0.338c0.032-0.106,0.092-0.187,0.182-0.231c0.102-0.052,0.199-0.059,0.304-0.021   c0.103,0.033,0.257,0.169,0.467,0.393c0.183,0.19,0.334,0.332,0.457,0.425c0.128,0.095,0.256,0.168,0.391,0.223   c0.292,0.123,0.591,0.163,0.901,0.111c0.308-0.044,0.834-0.259,1.581-0.64l11.044-5.627c0.729-0.371,1.225-0.699,1.489-0.978   c0.264-0.279,0.428-0.618,0.495-1.021c0.058-0.296,0.019-0.655-0.106-1.068c-0.004-0.029-0.009-0.048-0.013-0.057   c-0.08-0.242-0.109-0.414-0.093-0.519c0.022-0.103,0.084-0.182,0.194-0.238c0.131-0.066,0.242-0.08,0.325-0.032   c0.085,0.042,0.185,0.174,0.294,0.39c0.132,0.259,0.325,0.7,0.583,1.332c0.26,0.627,0.481,1.123,0.667,1.487   c0.398,0.781,0.844,1.552,1.333,2.313c0.102,0.157,0.159,0.25,0.177,0.284c0.069,0.136,0.089,0.248,0.071,0.349   c-0.023,0.103-0.086,0.177-0.184,0.227c-0.183,0.093-0.421,0.012-0.717-0.243c-0.021-0.021-0.034-0.036-0.038-0.045   c-0.148-0.144-0.29-0.264-0.438-0.365c-0.141-0.099-0.295-0.18-0.451-0.245c-0.353-0.136-0.695-0.18-1.036-0.135   C39.973,184.871,39.455,185.07,38.76,185.425L38.76,185.425z M37.004,171.519l-14.085,12.024c-0.41,0.357-0.734,0.698-0.975,1.022   c-0.236,0.321-0.392,0.627-0.464,0.911c-0.033,0.161-0.035,0.372,0,0.631c0.003,0.009,0.006,0.018,0.009,0.027l0.004,0.014   c0.029,0.306-0.052,0.487-0.247,0.55c-0.122,0.04-0.224,0.033-0.305-0.016c-0.083-0.053-0.147-0.162-0.204-0.334   c-0.016-0.05-0.042-0.177-0.076-0.371c-0.158-0.719-0.337-1.392-0.537-2.008c-0.15-0.462-0.321-0.911-0.52-1.353   c-0.197-0.437-0.294-0.66-0.297-0.669c-0.05-0.154-0.06-0.275-0.027-0.377c0.034-0.096,0.102-0.163,0.206-0.197   c0.082-0.025,0.285,0.108,0.607,0.404c0.326,0.294,0.683,0.378,1.072,0.252c0.159-0.052,0.355-0.155,0.58-0.313   c0.229-0.154,0.504-0.374,0.824-0.653l10.468-9.017c0.118-0.099,0.203-0.191,0.253-0.282c0.056-0.089,0.072-0.164,0.051-0.228   c-0.021-0.063-0.082-0.113-0.183-0.161c-0.104-0.046-0.224-0.072-0.368-0.085l-10.994-0.812c-1-0.076-1.884-0.1-2.654-0.069   c-0.767,0.029-1.347,0.107-1.736,0.234c-0.176,0.057-0.315,0.183-0.424,0.373c-0.113,0.191-0.158,0.406-0.136,0.645   c0.004,0.104,0.008,0.178,0.015,0.215c0.007,0.038,0.017,0.069,0.029,0.106c-0.003,0.021-0.003,0.051,0,0.09   c0.019,0.414-0.06,0.65-0.227,0.704c-0.113,0.037-0.206,0.027-0.271-0.032c-0.067-0.053-0.139-0.199-0.217-0.439   c-0.04-0.122-0.092-0.346-0.158-0.669c-0.012-0.037-0.015-0.062-0.012-0.082c-0.021-0.063-0.047-0.16-0.086-0.297   c-0.103-0.472-0.2-0.846-0.29-1.122c-0.121-0.371-0.291-0.787-0.504-1.243c-0.039-0.087-0.068-0.147-0.092-0.19   c-0.021-0.033-0.04-0.062-0.053-0.087c-0.014-0.026-0.022-0.054-0.034-0.09c-0.048-0.149-0.057-0.267-0.024-0.353   c0.028-0.084,0.104-0.144,0.217-0.18c0.09-0.029,0.173-0.021,0.257,0.021c0.083,0.038,0.188,0.134,0.324,0.275   c0.015,0.015,0.042,0.036,0.084,0.072c0.134,0.121,0.241,0.202,0.313,0.238c0.432,0.22,1.525,0.396,3.281,0.531   c0.257,0.021,0.448,0.039,0.571,0.049l16.801,1.448c0.145,0.013,0.256,0.047,0.347,0.098c0.093,0.055,0.151,0.126,0.179,0.212   c0.029,0.091,0.02,0.184-0.032,0.286C37.215,171.32,37.127,171.419,37.004,171.519L37.004,171.519z M29.519,160.929l-12.179,2.147   c-0.797,0.141-1.349,0.301-1.656,0.476c-0.311,0.181-0.556,0.437-0.741,0.783c-0.071,0.144-0.122,0.297-0.151,0.457   c-0.034,0.166-0.052,0.367-0.056,0.614c0.004,0.245-0.015,0.408-0.063,0.494c-0.049,0.081-0.126,0.134-0.234,0.152   c-0.166,0.02-0.285,0.002-0.349-0.059c-0.068-0.061-0.125-0.19-0.171-0.4c-0.007-0.037-0.02-0.165-0.04-0.39   c-0.168-1.531-0.398-3.139-0.695-4.821c-0.36-2.044-0.794-4.064-1.298-6.073c-0.094-0.371-0.148-0.594-0.161-0.668   c-0.041-0.23-0.024-0.383,0.039-0.467c0.067-0.084,0.211-0.143,0.432-0.182l0.178-0.031c0.01-0.002,0.029-0.001,0.059,0.004   c0.025,0.005,0.073,0.002,0.138-0.01l2.34-0.215c0.233-0.021,0.394-0.017,0.476,0.013c0.088,0.033,0.145,0.105,0.173,0.211   c0.021,0.118-0.005,0.219-0.083,0.3c-0.074,0.076-0.194,0.131-0.358,0.16c-0.038,0.006-0.095,0.012-0.167,0.015   c-0.077,0.004-0.129,0.009-0.157,0.014c-0.685,0.12-1.125,0.449-1.31,0.989c-0.19,0.536-0.167,1.46,0.063,2.773l0.347,1.964   c0.163,0.923,0.348,1.505,0.547,1.735c0.201,0.234,0.52,0.314,0.96,0.236l5.794-1.021c0.506-0.089,0.801-0.199,0.883-0.335   c0.088-0.131,0.093-0.402,0.021-0.815l-0.407-2.311c-0.151-0.858-0.333-1.474-0.538-1.844c-0.205-0.369-0.494-0.638-0.861-0.801   c-0.178-0.079-0.45-0.143-0.82-0.184c-0.371-0.046-0.574-0.155-0.604-0.328c-0.017-0.099,0.025-0.188,0.122-0.268   c0.102-0.082,0.247-0.136,0.439-0.17c0.047-0.008,0.355-0.043,0.934-0.106c0.577-0.068,1.139-0.147,1.678-0.243   c0.516-0.091,1.053-0.225,1.617-0.396c0.151-0.047,0.249-0.073,0.295-0.081c0.164-0.029,0.311-0.017,0.438,0.043   c0.131,0.055,0.203,0.139,0.221,0.237c0.041,0.229-0.159,0.414-0.593,0.559c-0.306,0.103-0.532,0.19-0.677,0.273   c-0.366,0.225-0.594,0.55-0.684,0.972s-0.059,1.064,0.092,1.922l0.468,2.653c0.061,0.347,0.158,0.566,0.284,0.65   c0.131,0.088,0.389,0.096,0.783,0.026l5.738-1.012c0.703-0.124,1.149-0.362,1.334-0.709c0.185-0.352,0.194-0.986,0.031-1.91   c-0.2-1.134-0.514-2.2-0.941-3.197c-0.422-0.999-0.9-1.785-1.427-2.363c-0.304-0.324-0.688-0.609-1.15-0.851   c-0.463-0.242-0.703-0.423-0.722-0.53c-0.013-0.075,0.018-0.144,0.1-0.201c0.077-0.063,0.189-0.106,0.339-0.133   c0.263-0.046,0.625-0.019,1.087,0.079c0.462,0.098,0.874,0.242,1.241,0.429c0.605,0.338,1.059,0.717,1.359,1.129   c0.3,0.415,0.51,0.973,0.632,1.667c0.033,0.183,0.118,0.83,0.261,1.945c0.138,1.111,0.287,2.119,0.447,3.028   c0.286,1.623,0.612,3.146,0.975,4.57c0.056,0.207,0.088,0.337,0.097,0.384c0.011,0.062-0.01,0.133-0.068,0.215   c-0.058,0.083-0.127,0.129-0.207,0.144c-0.117,0.021-0.222,0.005-0.313-0.047c-0.09-0.047-0.204-0.172-0.341-0.375   c-0.013-0.017-0.025-0.034-0.038-0.051c-0.205-0.313-0.408-0.532-0.614-0.655c-0.286-0.196-0.602-0.315-0.946-0.351   C30.816,160.749,30.269,160.797,29.519,160.929L29.519,160.929z M12.85,144.425l6.929-0.121c0.262-0.005,0.437-0.099,0.528-0.276   c0.088-0.178,0.127-0.616,0.115-1.311l-0.005-0.281c-0.031-1.794-0.368-3.083-1.015-3.872c-0.647-0.788-1.672-1.171-3.077-1.146   c-1.452,0.024-2.576,0.521-3.378,1.487c-0.802,0.966-1.188,2.296-1.159,3.99c0.011,0.633,0.09,1.046,0.236,1.243   C12.177,144.336,12.45,144.431,12.85,144.425L12.85,144.425z M27.023,146.396l-12.365,0.216c-0.809,0.014-1.378,0.086-1.709,0.22   c-0.336,0.13-0.618,0.35-0.855,0.662c-0.093,0.121-0.167,0.261-0.221,0.414c-0.06,0.153-0.108,0.35-0.152,0.583   c-0.034,0.243-0.079,0.396-0.139,0.47c-0.056,0.072-0.146,0.106-0.255,0.108c-0.157,0.003-0.267-0.028-0.32-0.099   c-0.059-0.07-0.089-0.213-0.093-0.422c-0.001-0.086,0.016-0.438,0.058-1.059c0.042-0.614,0.055-1.191,0.046-1.72   c-0.004-0.204-0.038-0.789-0.107-1.749c-0.069-0.961-0.108-1.813-0.121-2.56c-0.033-1.913,0.369-3.415,1.207-4.506   c0.833-1.085,2.008-1.644,3.527-1.67c1.066-0.019,2.042,0.274,2.924,0.882c0.877,0.608,1.578,1.477,2.102,2.601l4.93-3.366   c0.132-0.083,0.311-0.206,0.536-0.371c2.052-1.383,3.247-2.437,3.602-3.157c0.096-0.197,0.178-0.465,0.233-0.794   c0.061-0.33,0.163-0.498,0.315-0.5c0.195-0.003,0.33,0.094,0.41,0.293c0.075,0.198,0.12,0.621,0.132,1.273   c0.016,0.923-0.208,1.727-0.677,2.411c-0.464,0.688-1.43,1.515-2.889,2.479l-4.66,3.052c-0.442,0.293-0.742,0.612-0.902,0.958   c-0.161,0.341-0.235,0.956-0.22,1.852c0.01,0.575,0.088,0.95,0.229,1.119c0.142,0.169,0.409,0.25,0.8,0.243l4.625-0.081   c0.829-0.014,1.417-0.096,1.771-0.245c0.359-0.153,0.65-0.411,0.886-0.777c0.172-0.245,0.299-0.614,0.371-1.11   c0.009-0.039,0.013-0.058,0.013-0.067c0.034-0.281,0.083-0.468,0.143-0.555c0.065-0.091,0.155-0.136,0.278-0.138   c0.148-0.003,0.253,0.033,0.307,0.104c0.058,0.075,0.089,0.218,0.093,0.432c0.002,0.124-0.02,0.539-0.064,1.244   c-0.04,0.705-0.058,1.357-0.047,1.952c0.017,0.985,0.081,1.941,0.188,2.873c0.022,0.166,0.033,0.266,0.034,0.304   c0.002,0.143-0.029,0.248-0.09,0.33c-0.065,0.082-0.155,0.121-0.264,0.123c-0.205,0.004-0.384-0.184-0.539-0.562l-0.015-0.042   c-0.07-0.194-0.145-0.369-0.233-0.524c-0.083-0.156-0.186-0.297-0.298-0.414c-0.247-0.272-0.527-0.462-0.833-0.571   C28.405,146.428,27.842,146.381,27.023,146.396L27.023,146.396z M28.924,131.572l-3.236,0.348   c-0.068,0.013-0.136,0.021-0.212,0.024c-0.077,0.003-0.177-0.001-0.305-0.012c-0.161-0.014-0.272-0.053-0.343-0.116   c-0.066-0.058-0.097-0.147-0.087-0.256c0.018-0.204,0.33-0.387,0.932-0.549c0.543-0.144,1-0.286,1.366-0.43   c0.926-0.369,1.685-0.966,2.274-1.803c0.594-0.832,0.937-1.801,1.033-2.901c0.126-1.437-0.167-2.624-0.883-3.556   c-0.716-0.938-1.726-1.46-3.021-1.574c-1.071-0.094-1.948,0.154-2.616,0.746c-0.673,0.586-1.366,1.787-2.074,3.603   c-0.843,2.153-1.727,3.619-2.645,4.394c-0.923,0.775-2.117,1.095-3.578,0.967c-1.541-0.135-2.742-0.823-3.609-2.06   c-0.866-1.237-1.218-2.787-1.056-4.646c0.091-1.038,0.419-2.118,0.986-3.244c0.146-0.308,0.226-0.501,0.232-0.582   c0.012-0.133-0.028-0.284-0.112-0.468c-0.089-0.18-0.132-0.289-0.129-0.327c0.004-0.043,0.045-0.082,0.125-0.113   c0.074-0.032,0.171-0.047,0.281-0.047l3.511-0.099c0.048-0.005,0.096-0.011,0.153-0.011c0.057,0,0.128,0.006,0.223,0.015   c0.138,0.012,0.24,0.049,0.296,0.112c0.062,0.058,0.087,0.146,0.078,0.255c-0.019,0.218-0.253,0.384-0.703,0.502   s-0.815,0.258-1.097,0.41c-1,0.51-1.734,1.096-2.208,1.757c-0.474,0.666-0.752,1.492-0.838,2.482   c-0.106,1.209,0.143,2.244,0.742,3.1c0.604,0.855,1.408,1.327,2.418,1.416c0.911,0.08,1.639-0.11,2.2-0.572   c0.556-0.458,1.202-1.553,1.93-3.276c0.596-1.453,1.057-2.468,1.395-3.046c0.332-0.573,0.682-1.03,1.051-1.36   c0.619-0.572,1.303-0.976,2.05-1.207c0.747-0.236,1.589-0.31,2.523-0.229c1.826,0.16,3.217,0.913,4.179,2.258   c0.958,1.34,1.344,3.099,1.154,5.266c-0.117,1.333-0.406,2.459-0.863,3.375C29.984,131.034,29.479,131.52,28.924,131.572   L28.924,131.572z M28.583,116.389l-12.139-2.359c-0.794-0.154-1.367-0.203-1.718-0.14c-0.355,0.057-0.673,0.218-0.963,0.487   c-0.224,0.18-0.419,0.486-0.588,0.904c-0.002,0.009-0.003,0.019-0.005,0.028c-0.095,0.239-0.182,0.386-0.257,0.45   c-0.079,0.058-0.179,0.076-0.31,0.051c-0.136-0.026-0.226-0.087-0.262-0.177c-0.04-0.095-0.039-0.246,0.001-0.456   c0.013-0.065,0.107-0.401,0.29-1.016c0.182-0.614,0.324-1.193,0.431-1.744c0.188-0.968,0.32-1.922,0.401-2.861   c0.013-0.167,0.021-0.262,0.027-0.291c0.025-0.131,0.083-0.227,0.169-0.297c0.09-0.064,0.187-0.09,0.285-0.071   c0.112,0.022,0.193,0.077,0.252,0.17c0.061,0.089,0.099,0.291,0.127,0.597c0.026,0.263,0.059,0.467,0.098,0.616   c0.043,0.154,0.099,0.291,0.172,0.417c0.154,0.277,0.364,0.493,0.641,0.644c0.271,0.154,0.818,0.309,1.64,0.469l12.167,2.365   c0.804,0.156,1.396,0.204,1.775,0.146c0.38-0.057,0.717-0.225,1.019-0.5c0.228-0.198,0.418-0.505,0.574-0.907   c0.015-0.026,0.023-0.044,0.025-0.053c0.086-0.24,0.169-0.394,0.246-0.466c0.081-0.067,0.178-0.091,0.299-0.068   c0.145,0.028,0.24,0.085,0.276,0.175c0.042,0.086,0.039,0.25-0.008,0.488c-0.056,0.285-0.175,0.751-0.361,1.409   c-0.181,0.654-0.313,1.181-0.391,1.583c-0.167,0.86-0.29,1.743-0.373,2.643c-0.017,0.186-0.028,0.295-0.035,0.333   c-0.029,0.149-0.083,0.25-0.159,0.318c-0.081,0.067-0.177,0.086-0.284,0.066c-0.201-0.039-0.339-0.25-0.415-0.633   c-0.004-0.03-0.005-0.049-0.003-0.059c-0.028-0.204-0.065-0.386-0.12-0.557c-0.05-0.165-0.121-0.324-0.204-0.471   c-0.194-0.324-0.437-0.57-0.733-0.744C29.881,116.699,29.35,116.538,28.583,116.389L28.583,116.389z M31.845,104.457l-13.836-3.967   c-0.256-0.074-0.451-0.07-0.584,0.016c-0.127,0.083-0.234,0.265-0.317,0.553l-1.096,3.821c-0.14,0.489-0.138,0.931,0.014,1.316   c0.152,0.385,0.472,0.789,0.963,1.198c0.133,0.107,0.337,0.24,0.606,0.406c0.407,0.24,0.585,0.465,0.539,0.66   c-0.041,0.107-0.088,0.167-0.145,0.191c-0.051,0.025-0.153,0.016-0.294-0.025c-0.11-0.032-0.197-0.057-0.269-0.083   c-0.072-0.025-0.133-0.053-0.195-0.081l-2.675-1.083c-0.234-0.097-0.377-0.203-0.423-0.319c-0.052-0.114-0.019-0.367,0.094-0.761   c0.034-0.119,0.181-0.527,0.447-1.229c0.267-0.706,0.483-1.356,0.655-1.956l2.456-8.565c0.192-0.668,0.373-1.404,0.538-2.203   s0.266-1.256,0.299-1.37c0.054-0.188,0.13-0.314,0.234-0.383c0.098-0.066,0.237-0.086,0.412-0.056l2.548,0.527l0.188,0.054   c0.179,0.051,0.303,0.117,0.37,0.195c0.073,0.075,0.089,0.174,0.056,0.289c-0.057,0.197-0.271,0.274-0.646,0.235   c-0.376-0.038-0.647-0.042-0.813,0c-0.408,0.076-0.769,0.28-1.078,0.617c-0.31,0.337-0.538,0.767-0.686,1.284l-1.022,3.564   c-0.096,0.334-0.108,0.568-0.046,0.714c0.068,0.144,0.238,0.256,0.513,0.335l13.918,3.991c0.828,0.237,1.401,0.327,1.715,0.269   c0.311-0.064,0.613-0.274,0.91-0.635c0.16-0.177,0.325-0.427,0.494-0.755c0.022-0.043,0.042-0.077,0.059-0.102   c0.106-0.232,0.197-0.375,0.277-0.43c0.075-0.053,0.172-0.065,0.291-0.031c0.142,0.041,0.232,0.121,0.269,0.235   c0.04,0.121,0.028,0.281-0.03,0.487c-0.064,0.224-0.228,0.673-0.488,1.355c-0.263,0.677-0.462,1.249-0.596,1.716   c-0.176,0.613-0.321,1.274-0.438,1.979c-0.112,0.701-0.177,1.083-0.195,1.147c-0.046,0.16-0.115,0.279-0.21,0.351   c-0.096,0.077-0.2,0.096-0.315,0.063c-0.142-0.041-0.232-0.122-0.278-0.238c-0.044-0.122-0.038-0.353,0.011-0.695   c0.001-0.04,0.004-0.083,0.011-0.141c0.021-0.331,0.019-0.584-0.002-0.753c-0.059-0.433-0.204-0.757-0.429-0.975   C33.395,104.976,32.801,104.731,31.845,104.457L31.845,104.457z"/>
	<path fill-rule="evenodd" clip-rule="evenodd" d="M32.556,88.02l2.561-4.816c0.078-0.147,0.12-0.276,0.118-0.384   c0.001-0.113-0.036-0.187-0.111-0.227c-0.063-0.034-0.213-0.065-0.436-0.092l-0.045-0.008l-7.138-0.841   c-0.106-0.014-0.207-0.007-0.294,0.016c-0.086,0.03-0.144,0.069-0.169,0.115c-0.031,0.06-0.037,0.131-0.02,0.221   c0.015,0.083,0.057,0.176,0.125,0.261l4.376,5.821c0.066,0.1,0.128,0.176,0.19,0.241s0.123,0.113,0.19,0.149   c0.105,0.056,0.211,0.048,0.318-0.02C32.33,88.385,32.44,88.239,32.556,88.02L32.556,88.02z M35.246,94.723L24.021,79.8   c-0.107-0.154-0.17-0.268-0.181-0.339c-0.013-0.077,0-0.162,0.041-0.259c0.069-0.109,0.247-0.149,0.533-0.11   c0.021,0.001,0.039-0.001,0.051-0.005l17.612,2.038c0.892,0.107,1.585,0.121,2.073,0.046c0.49-0.08,0.901-0.254,1.235-0.529   c0.133-0.107,0.293-0.287,0.486-0.529c0.26-0.326,0.478-0.441,0.658-0.345c0.105,0.056,0.167,0.121,0.187,0.196   c0.022,0.071-0.004,0.17-0.069,0.292c-0.009,0.017-0.211,0.335-0.599,0.954c-0.392,0.617-0.755,1.238-1.085,1.859   c-0.347,0.652-0.656,1.344-0.934,2.081c-0.071,0.194-0.119,0.314-0.146,0.365c-0.034,0.063-0.101,0.108-0.195,0.134   c-0.096,0.019-0.179,0.013-0.242-0.021c-0.172-0.091-0.235-0.309-0.18-0.646c0.01-0.081,0.019-0.136,0.023-0.166   c0.052-0.371,0.042-0.657-0.025-0.854c-0.065-0.202-0.204-0.356-0.41-0.466c-0.113-0.06-0.266-0.108-0.447-0.151   c-0.185-0.039-0.399-0.072-0.649-0.097l-4.093-0.505c-0.384-0.048-0.668-0.021-0.85,0.077c-0.186,0.095-0.356,0.295-0.513,0.59   l-3.019,5.678c-0.143,0.269-0.2,0.508-0.169,0.724c0.029,0.21,0.198,0.51,0.505,0.905l2.007,2.663   c0.237,0.304,0.436,0.539,0.6,0.696c0.162,0.162,0.327,0.287,0.491,0.374c0.227,0.121,0.484,0.155,0.762,0.098   s0.559-0.209,0.849-0.46c0.093-0.074,0.203-0.199,0.329-0.375c0.216-0.284,0.418-0.381,0.607-0.281   c0.097,0.052,0.155,0.125,0.174,0.211c0.013,0.088-0.018,0.206-0.096,0.354c-0.044,0.083-0.265,0.436-0.655,1.059   c-0.395,0.621-0.735,1.199-1.019,1.733c-0.138,0.261-0.267,0.564-0.384,0.906c-0.124,0.344-0.194,0.539-0.221,0.588   c-0.038,0.072-0.11,0.125-0.208,0.159c-0.101,0.027-0.198,0.019-0.287-0.029c-0.13-0.069-0.178-0.283-0.135-0.638l0.006-0.012   c0-0.021,0.004-0.058,0.009-0.108c0.026-0.261,0.026-0.465,0.011-0.609c-0.046-0.289-0.161-0.608-0.344-0.964   C35.936,95.726,35.647,95.275,35.246,94.723L35.246,94.723z M45.18,79.102l-2.953-1.369c-0.065-0.024-0.127-0.052-0.194-0.089   c-0.067-0.037-0.151-0.092-0.255-0.167c-0.131-0.095-0.207-0.185-0.235-0.276c-0.027-0.084-0.007-0.176,0.057-0.265   c0.12-0.166,0.482-0.162,1.082,0.01c0.54,0.156,1.004,0.27,1.392,0.334c0.983,0.162,1.942,0.04,2.878-0.374   c0.938-0.408,1.73-1.062,2.379-1.955c0.848-1.167,1.208-2.334,1.074-3.503c-0.131-1.172-0.728-2.14-1.779-2.904   c-0.87-0.632-1.75-0.871-2.626-0.708c-0.879,0.156-2.091,0.829-3.633,2.021c-1.831,1.411-3.344,2.213-4.53,2.404   c-1.19,0.188-2.378-0.152-3.564-1.014c-1.251-0.909-1.927-2.118-2.033-3.624c-0.105-1.506,0.392-3.016,1.488-4.526   c0.612-0.843,1.45-1.6,2.516-2.273c0.284-0.188,0.452-0.313,0.499-0.379c0.078-0.108,0.123-0.258,0.145-0.459   c0.016-0.2,0.035-0.316,0.058-0.347c0.025-0.035,0.081-0.047,0.165-0.033c0.081,0.011,0.171,0.048,0.265,0.104l3.061,1.723   c0.044,0.021,0.088,0.041,0.137,0.07c0.049,0.03,0.106,0.072,0.184,0.128c0.112,0.081,0.18,0.166,0.196,0.248   c0.023,0.082,0,0.17-0.065,0.259c-0.128,0.177-0.415,0.198-0.861,0.068c-0.447-0.13-0.832-0.198-1.151-0.213   c-1.12-0.078-2.051,0.046-2.797,0.369c-0.749,0.326-1.413,0.892-1.998,1.696c-0.713,0.982-1.033,1.997-0.96,3.039   c0.077,1.044,0.523,1.863,1.343,2.459c0.739,0.537,1.461,0.75,2.181,0.643c0.712-0.106,1.83-0.712,3.342-1.814   c1.259-0.939,2.177-1.571,2.764-1.893c0.58-0.32,1.115-0.531,1.601-0.625c0.825-0.171,1.62-0.164,2.379,0.022   c0.761,0.183,1.522,0.553,2.281,1.104c1.483,1.077,2.288,2.438,2.419,4.087c0.13,1.643-0.444,3.349-1.723,5.108   c-0.786,1.082-1.614,1.898-2.478,2.447C46.366,79.186,45.682,79.342,45.18,79.102L45.18,79.102z M59.692,61.09l-2.638-1.908   c-0.06-0.036-0.116-0.075-0.174-0.124c-0.059-0.049-0.13-0.119-0.218-0.213c-0.11-0.119-0.167-0.221-0.177-0.316   c-0.011-0.088,0.026-0.174,0.106-0.249c0.149-0.14,0.504-0.066,1.06,0.216c0.5,0.256,0.934,0.457,1.303,0.594   c0.935,0.346,1.899,0.41,2.897,0.182c0.998-0.221,1.901-0.712,2.708-1.465c1.055-0.984,1.631-2.062,1.723-3.233   c0.095-1.176-0.306-2.24-1.192-3.191c-0.734-0.787-1.551-1.189-2.444-1.197c-0.892-0.014-2.21,0.415-3.952,1.29   c-2.067,1.036-3.704,1.534-4.905,1.496c-1.204-0.042-2.306-0.603-3.306-1.675c-1.055-1.131-1.487-2.446-1.304-3.945   c0.184-1.499,0.959-2.886,2.325-4.159c0.762-0.711,1.729-1.293,2.904-1.751c0.314-0.13,0.502-0.222,0.562-0.277   c0.098-0.091,0.169-0.229,0.23-0.423c0.054-0.193,0.095-0.303,0.123-0.329c0.031-0.029,0.088-0.03,0.168,0   c0.077,0.026,0.159,0.08,0.24,0.153l2.676,2.276c0.04,0.028,0.079,0.056,0.121,0.095s0.091,0.091,0.156,0.161   c0.094,0.101,0.145,0.197,0.145,0.281c0.007,0.084-0.033,0.167-0.113,0.242c-0.16,0.149-0.445,0.116-0.859-0.097   c-0.414-0.213-0.779-0.354-1.09-0.429c-1.084-0.29-2.022-0.347-2.816-0.172c-0.798,0.178-1.557,0.605-2.285,1.284   c-0.888,0.828-1.395,1.763-1.522,2.799c-0.124,1.04,0.158,1.929,0.849,2.67c0.624,0.668,1.292,1.015,2.018,1.047   c0.72,0.032,1.932-0.35,3.627-1.143c1.415-0.681,2.437-1.127,3.074-1.331c0.63-0.204,1.196-0.309,1.691-0.309   c0.842-0.011,1.622,0.148,2.331,0.476c0.712,0.325,1.389,0.833,2.028,1.519c1.25,1.34,1.78,2.831,1.595,4.475   c-0.185,1.637-1.075,3.202-2.666,4.686c-0.978,0.913-1.947,1.555-2.899,1.93C60.84,61.399,60.138,61.422,59.692,61.09L59.692,61.09   z M73.579,46.598l-8.256-11.791c-0.153-0.218-0.306-0.337-0.463-0.355c-0.151-0.017-0.349,0.058-0.594,0.23l-3.256,2.28   c-0.417,0.292-0.693,0.637-0.817,1.031c-0.125,0.396-0.13,0.91-0.004,1.538c0.035,0.167,0.111,0.398,0.215,0.697   c0.165,0.443,0.163,0.729,0.004,0.852c-0.1,0.058-0.174,0.075-0.233,0.058c-0.056-0.013-0.129-0.084-0.213-0.205   c-0.065-0.093-0.118-0.167-0.157-0.233c-0.04-0.065-0.07-0.125-0.1-0.185l-1.397-2.525c-0.121-0.223-0.166-0.396-0.128-0.515   c0.032-0.121,0.217-0.296,0.552-0.531c0.101-0.071,0.472-0.296,1.12-0.674c0.652-0.38,1.229-0.75,1.741-1.108l7.299-5.111   c0.569-0.399,1.173-0.856,1.804-1.374c0.631-0.518,0.997-0.809,1.094-0.877c0.16-0.112,0.299-0.163,0.423-0.151   c0.118,0.01,0.238,0.083,0.355,0.216l1.648,2.013l0.112,0.16c0.106,0.152,0.162,0.282,0.164,0.384   c0.009,0.104-0.04,0.191-0.138,0.26c-0.168,0.117-0.383,0.042-0.651-0.224c-0.268-0.266-0.477-0.44-0.631-0.511   c-0.365-0.198-0.773-0.267-1.226-0.199s-0.9,0.258-1.341,0.567l-3.037,2.127c-0.285,0.199-0.442,0.373-0.486,0.526   c-0.038,0.154,0.024,0.35,0.188,0.583l8.305,11.861c0.495,0.706,0.883,1.137,1.164,1.289c0.282,0.145,0.649,0.172,1.107,0.079   c0.235-0.037,0.521-0.127,0.858-0.276c0.044-0.02,0.081-0.033,0.11-0.042c0.229-0.113,0.388-0.167,0.486-0.16   c0.091,0.005,0.174,0.058,0.245,0.159c0.084,0.121,0.104,0.241,0.061,0.353c-0.045,0.119-0.155,0.236-0.33,0.359   c-0.191,0.133-0.6,0.379-1.232,0.747c-0.63,0.36-1.145,0.68-1.542,0.958c-0.522,0.366-1.052,0.788-1.586,1.261   c-0.528,0.475-0.819,0.731-0.874,0.769c-0.137,0.095-0.265,0.145-0.384,0.141c-0.123-0.001-0.216-0.052-0.285-0.149   c-0.084-0.121-0.104-0.241-0.066-0.36c0.042-0.123,0.193-0.297,0.446-0.533c0.025-0.029,0.055-0.062,0.097-0.103   c0.224-0.244,0.382-0.441,0.472-0.586c0.227-0.374,0.318-0.717,0.281-1.028C74.457,47.977,74.149,47.413,73.579,46.598   L73.579,46.598z M78.375,28.628c-0.336-0.756-0.628-1.257-0.872-1.514c-0.243-0.251-0.542-0.42-0.898-0.506   c-0.28-0.079-0.621-0.073-1.03,0.015c-0.009,0.004-0.017,0.008-0.026,0.012c-0.237,0.064-0.398,0.078-0.492,0.042   c-0.092-0.032-0.163-0.109-0.217-0.231c-0.052-0.117-0.055-0.215-0.011-0.292c0.049-0.079,0.169-0.158,0.365-0.246   c0.069-0.031,0.388-0.146,0.961-0.345c0.573-0.198,1.096-0.405,1.575-0.618c0.805-0.358,1.579-0.75,2.315-1.167   c0.14-0.083,0.215-0.126,0.232-0.134c0.122-0.044,0.227-0.054,0.315-0.031c0.086,0.019,0.148,0.075,0.185,0.158   c0.054,0.122,0.056,0.23,0.004,0.336c-0.047,0.105-0.18,0.227-0.392,0.373c-0.027,0.033-0.065,0.076-0.123,0.133   c-0.221,0.229-0.364,0.423-0.427,0.586c-0.09,0.254-0.096,0.569-0.014,0.939c0.077,0.372,0.271,0.9,0.577,1.587l2.848,6.396   c0.786,1.766,1.413,2.987,1.875,3.662c0.46,0.671,0.969,1.194,1.523,1.573c0.724,0.48,1.55,0.732,2.481,0.751   c0.926,0.02,1.888-0.195,2.884-0.638c1.061-0.473,1.898-1.038,2.518-1.694c0.62-0.656,1.034-1.424,1.243-2.299   c0.156-0.679,0.153-1.423-0.007-2.227s-0.629-2.081-1.407-3.828l-0.153-0.344L91.42,22.82c-0.321-0.722-0.608-1.214-0.865-1.475   c-0.254-0.267-0.577-0.441-0.976-0.53c-0.154-0.03-0.322-0.044-0.498-0.029c-0.182,0.013-0.39,0.049-0.64,0.108   c-0.254,0.072-0.431,0.098-0.534,0.076c-0.097-0.02-0.173-0.084-0.218-0.185c-0.06-0.135-0.067-0.246-0.019-0.335   c0.044-0.087,0.181-0.179,0.402-0.278c0.187-0.083,0.523-0.207,1.009-0.366c0.491-0.161,0.879-0.308,1.166-0.436   c0.561-0.25,1.154-0.556,1.777-0.911c0.193-0.118,0.309-0.184,0.352-0.204c0.118-0.052,0.216-0.065,0.296-0.038   c0.078,0.022,0.137,0.085,0.18,0.18c0.052,0.118,0.064,0.227,0.034,0.334c-0.03,0.107-0.145,0.248-0.35,0.432   c-0.147,0.149-0.259,0.271-0.328,0.375c-0.069,0.104-0.126,0.208-0.17,0.321c-0.112,0.274-0.141,0.573-0.089,0.899   c0.058,0.329,0.243,0.851,0.564,1.572l2.575,5.784c0.98,2.2,1.561,3.796,1.744,4.793c0.183,0.997,0.167,1.932-0.053,2.806   c-0.281,1.089-0.795,2.053-1.555,2.886c-0.758,0.837-1.734,1.522-2.93,2.055c-1.257,0.56-2.428,0.878-3.514,0.955   s-2.078-0.091-2.978-0.509c-0.853-0.381-1.591-0.964-2.223-1.74c-0.632-0.776-1.379-2.137-2.246-4.085L78.375,28.628L78.375,28.628   z M104.251,32.039c0.077,0.334,0.158,0.579,0.243,0.736c0.081,0.157,0.183,0.261,0.301,0.311c0.404,0.181,1.016,0.273,1.837,0.275   c0.821,0,1.664-0.096,2.521-0.294c2.491-0.575,4.25-1.714,5.277-3.422c1.027-1.708,1.244-3.858,0.646-6.446   c-0.686-2.973-2.089-5.135-4.209-6.488s-4.645-1.688-7.571-1.012c-1.095,0.252-1.788,0.53-2.083,0.837   c-0.291,0.307-0.351,0.829-0.182,1.562L104.251,32.039L104.251,32.039z M102.001,32.285L98.99,19.238   c-0.156-0.677-0.333-1.145-0.529-1.402c-0.2-0.252-0.488-0.439-0.868-0.562c-0.195-0.063-0.469-0.087-0.82-0.084   c-0.039-0.001-0.063,0-0.073,0.002c-0.257,0.011-0.425,0-0.512-0.038c-0.083-0.04-0.137-0.11-0.163-0.221   c-0.021-0.088,0.017-0.18,0.107-0.274c0.095-0.095,0.227-0.16,0.398-0.199c0.009-0.002,0.325-0.056,0.946-0.155   s1.229-0.22,1.827-0.358c0.459-0.106,1.216-0.3,2.263-0.586c1.043-0.285,1.86-0.493,2.449-0.629   c3.334-0.77,6.149-0.535,8.438,0.705c2.29,1.244,3.775,3.339,4.458,6.293c0.702,3.042,0.295,5.701-1.222,7.976   c-1.518,2.27-3.909,3.785-7.169,4.537c-0.896,0.207-1.88,0.405-2.946,0.592c-1.069,0.193-1.688,0.307-1.859,0.347   c-0.557,0.128-1.096,0.311-1.623,0.545c-0.527,0.234-0.797,0.355-0.806,0.357c-0.125,0.029-0.25,0.019-0.371-0.037   c-0.124-0.05-0.194-0.121-0.212-0.2c-0.029-0.125-0.007-0.243,0.063-0.342c0.074-0.104,0.231-0.225,0.477-0.369   c0.033-0.027,0.079-0.062,0.146-0.107c0.23-0.166,0.383-0.309,0.46-0.419c0.191-0.254,0.3-0.542,0.332-0.873   C102.208,33.415,102.15,32.93,102.001,32.285L102.001,32.285z M121.241,27.765l-1.507-12.274c-0.099-0.803-0.23-1.362-0.398-1.677   c-0.164-0.32-0.416-0.573-0.76-0.765c-0.24-0.158-0.592-0.249-1.042-0.28c-0.009,0.001-0.019,0.002-0.028,0.003   c-0.256-0.017-0.424-0.053-0.507-0.105c-0.079-0.058-0.128-0.147-0.145-0.28c-0.017-0.137,0.013-0.241,0.087-0.303   c0.078-0.067,0.221-0.113,0.434-0.139c0.066-0.008,0.415-0.022,1.055-0.039c0.64-0.017,1.234-0.061,1.792-0.129   c0.978-0.12,1.926-0.289,2.845-0.503c0.163-0.039,0.256-0.06,0.285-0.063c0.132-0.016,0.241,0.009,0.334,0.069   c0.089,0.065,0.144,0.15,0.155,0.249c0.014,0.114-0.013,0.208-0.083,0.293c-0.067,0.085-0.247,0.184-0.529,0.305   c-0.241,0.106-0.426,0.201-0.555,0.284c-0.133,0.088-0.246,0.184-0.343,0.292c-0.216,0.232-0.356,0.499-0.414,0.809   c-0.063,0.305-0.042,0.873,0.061,1.704l1.511,12.303c0.1,0.813,0.238,1.39,0.409,1.733c0.172,0.344,0.435,0.613,0.791,0.814   c0.259,0.155,0.61,0.241,1.04,0.266c0.029,0.006,0.049,0.008,0.059,0.007c0.254,0.008,0.426,0.039,0.519,0.09   c0.088,0.057,0.142,0.141,0.157,0.264c0.018,0.146-0.007,0.255-0.081,0.317c-0.069,0.066-0.226,0.114-0.467,0.144   c-0.288,0.036-0.769,0.065-1.451,0.092c-0.678,0.031-1.22,0.068-1.626,0.118c-0.869,0.107-1.747,0.263-2.629,0.462   c-0.182,0.042-0.289,0.064-0.327,0.069c-0.151,0.019-0.265-0.001-0.352-0.053c-0.089-0.056-0.137-0.141-0.151-0.25   c-0.025-0.203,0.133-0.399,0.475-0.59c0.027-0.013,0.045-0.02,0.055-0.021c0.186-0.09,0.347-0.182,0.492-0.286   c0.142-0.099,0.271-0.215,0.385-0.34c0.248-0.285,0.407-0.592,0.48-0.927C121.347,29.095,121.336,28.54,121.241,27.765   L121.241,27.765z M128.292,19.812c-0.02,1.137,0.118,2.249,0.408,3.334c0.295,1.091,0.739,2.151,1.334,3.185   c0.74,1.284,1.66,2.267,2.753,2.938c1.097,0.676,2.339,1.027,3.724,1.051c2.451,0.043,4.402-0.713,5.857-2.269   s2.207-3.694,2.254-6.416c0.021-1.138-0.146-2.292-0.496-3.475c-0.355-1.182-0.865-2.281-1.537-3.297   c-0.732-1.131-1.627-1.99-2.683-2.584c-1.057-0.594-2.251-0.905-3.579-0.928c-2.375-0.042-4.292,0.71-5.762,2.256   C129.098,15.151,128.337,17.223,128.292,19.812L128.292,19.812z M126.145,20.655c0.024-1.404,0.305-2.742,0.846-4.008   c0.536-1.271,1.308-2.396,2.311-3.383c0.979-0.968,2.091-1.701,3.342-2.193c1.247-0.497,2.579-0.731,3.997-0.707   c1.551,0.027,2.956,0.304,4.204,0.826c1.252,0.526,2.348,1.293,3.292,2.305c0.874,0.943,1.545,2.045,2.009,3.306   c0.459,1.255,0.678,2.587,0.653,3.991c-0.023,1.356-0.27,2.652-0.739,3.886c-0.469,1.234-1.116,2.313-1.951,3.236   c-1.028,1.125-2.2,1.975-3.52,2.552c-1.324,0.577-2.742,0.852-4.261,0.825c-3.089-0.054-5.57-1.063-7.45-3.024   C127.003,26.307,126.091,23.768,126.145,20.655L126.145,20.655z M154.266,14.113l-1.204,6.825c-0.045,0.258,0.014,0.447,0.17,0.571   c0.158,0.12,0.581,0.243,1.266,0.363l0.276,0.049c1.768,0.312,3.097,0.227,3.994-0.257c0.897-0.485,1.469-1.418,1.712-2.801   c0.253-1.43-0.02-2.628-0.814-3.6c-0.796-0.972-2.028-1.604-3.697-1.899c-0.623-0.11-1.043-0.112-1.265-0.005   C154.48,13.469,154.335,13.719,154.266,14.113L154.266,14.113z M149.626,27.649l2.147-12.179c0.141-0.796,0.179-1.37,0.11-1.721   c-0.063-0.354-0.225-0.672-0.487-0.965c-0.101-0.114-0.224-0.213-0.363-0.296c-0.14-0.087-0.322-0.173-0.544-0.26   c-0.232-0.08-0.374-0.153-0.434-0.226c-0.061-0.069-0.078-0.164-0.059-0.271c0.027-0.155,0.079-0.256,0.158-0.296   c0.08-0.044,0.227-0.047,0.433-0.011c0.084,0.015,0.427,0.1,1.027,0.258c0.596,0.158,1.158,0.282,1.679,0.374   c0.202,0.036,0.782,0.114,1.738,0.229c0.956,0.116,1.8,0.24,2.535,0.37c1.885,0.332,3.282,1.014,4.192,2.044   c0.907,1.025,1.231,2.286,0.968,3.781c-0.186,1.05-0.659,1.953-1.424,2.702c-0.765,0.745-1.751,1.267-2.954,1.567l2.363,5.482   c0.057,0.146,0.143,0.344,0.262,0.598c0.967,2.278,1.772,3.652,2.412,4.137c0.175,0.132,0.423,0.263,0.735,0.381   c0.313,0.123,0.458,0.255,0.431,0.405c-0.033,0.192-0.154,0.306-0.365,0.346c-0.209,0.036-0.633,0-1.275-0.114   c-0.909-0.16-1.655-0.533-2.237-1.124c-0.588-0.587-1.214-1.693-1.882-3.309l-2.106-5.157c-0.204-0.49-0.46-0.845-0.769-1.068   c-0.304-0.223-0.894-0.414-1.775-0.569c-0.566-0.1-0.95-0.095-1.143,0.011c-0.192,0.106-0.323,0.354-0.391,0.738l-0.804,4.556   c-0.144,0.816-0.176,1.41-0.098,1.786c0.083,0.382,0.279,0.716,0.594,1.018c0.209,0.215,0.547,0.411,1.02,0.576   c0.036,0.016,0.055,0.024,0.063,0.025c0.271,0.087,0.444,0.17,0.518,0.247c0.077,0.081,0.104,0.178,0.082,0.299   c-0.025,0.146-0.081,0.242-0.16,0.281c-0.085,0.043-0.23,0.046-0.441,0.009c-0.122-0.021-0.524-0.122-1.209-0.3   c-0.685-0.174-1.321-0.315-1.907-0.418c-0.971-0.171-1.921-0.291-2.855-0.363c-0.168-0.01-0.268-0.018-0.305-0.024   c-0.141-0.025-0.238-0.076-0.308-0.151c-0.068-0.08-0.09-0.175-0.07-0.283c0.035-0.202,0.253-0.342,0.653-0.421l0.045-0.006   c0.204-0.032,0.39-0.071,0.56-0.128c0.169-0.053,0.326-0.126,0.463-0.213c0.313-0.191,0.554-0.429,0.719-0.709   C149.33,28.999,149.484,28.456,149.626,27.649L149.626,27.649z M169.376,19.155c0.256-0.788,0.375-1.354,0.365-1.708   c-0.012-0.349-0.121-0.675-0.328-0.977c-0.155-0.246-0.413-0.47-0.776-0.678c-0.009-0.003-0.018-0.006-0.026-0.009   c-0.22-0.111-0.349-0.208-0.395-0.298c-0.047-0.085-0.048-0.19-0.007-0.317c0.04-0.123,0.104-0.197,0.188-0.224   c0.089-0.026,0.231-0.005,0.436,0.062c0.072,0.023,0.387,0.15,0.945,0.387c0.559,0.237,1.085,0.433,1.583,0.595   c0.838,0.272,1.675,0.5,2.501,0.683c0.16,0.032,0.244,0.049,0.263,0.055c0.119,0.049,0.204,0.111,0.254,0.188   c0.052,0.072,0.061,0.155,0.032,0.241c-0.041,0.126-0.113,0.208-0.223,0.253c-0.104,0.046-0.285,0.047-0.54,0.014   c-0.042,0.006-0.099,0.013-0.181,0.017c-0.317,0.022-0.553,0.07-0.709,0.15c-0.237,0.128-0.452,0.358-0.639,0.688   c-0.192,0.328-0.401,0.85-0.634,1.565l-2.164,6.659c-0.598,1.838-0.949,3.166-1.057,3.976c-0.106,0.806-0.079,1.536,0.079,2.188   c0.218,0.841,0.663,1.582,1.342,2.218c0.675,0.634,1.534,1.119,2.57,1.456c1.104,0.358,2.105,0.499,3.005,0.426   s1.721-0.367,2.462-0.876c0.57-0.4,1.065-0.955,1.485-1.66c0.419-0.705,0.924-1.967,1.516-3.787l0.116-0.358l2.116-6.515   c0.244-0.751,0.36-1.309,0.344-1.675c-0.01-0.369-0.133-0.714-0.37-1.046c-0.095-0.126-0.21-0.249-0.351-0.354   c-0.144-0.112-0.322-0.225-0.548-0.348c-0.237-0.117-0.385-0.215-0.447-0.3c-0.06-0.08-0.072-0.179-0.039-0.283   c0.046-0.14,0.114-0.228,0.211-0.262c0.092-0.035,0.254-0.012,0.484,0.063c0.195,0.063,0.527,0.197,0.995,0.403   c0.473,0.209,0.859,0.359,1.158,0.457c0.584,0.19,1.229,0.359,1.931,0.512c0.222,0.042,0.353,0.069,0.398,0.084   c0.122,0.04,0.204,0.097,0.245,0.17c0.042,0.069,0.045,0.155,0.013,0.254c-0.04,0.122-0.104,0.211-0.198,0.271   c-0.095,0.06-0.273,0.086-0.549,0.087c-0.209,0.012-0.375,0.028-0.495,0.06c-0.12,0.031-0.232,0.069-0.341,0.125   c-0.267,0.128-0.488,0.332-0.668,0.608c-0.177,0.283-0.389,0.794-0.633,1.546l-1.956,6.021c-0.744,2.291-1.381,3.865-1.912,4.729   c-0.531,0.864-1.168,1.547-1.917,2.05c-0.938,0.622-1.964,0.994-3.087,1.104c-1.123,0.115-2.308-0.029-3.553-0.434   c-1.308-0.425-2.392-0.972-3.25-1.642c-0.858-0.669-1.483-1.458-1.872-2.37c-0.379-0.854-0.538-1.781-0.488-2.781   s0.406-2.511,1.064-4.539L169.376,19.155L169.376,19.155z"/>
	<path fill-rule="evenodd" clip-rule="evenodd" d="M190.589,30.162c0.006-0.127,0-0.234-0.026-0.325   c-0.023-0.095-0.054-0.149-0.095-0.172c-0.092-0.051-0.29,0.149-0.605,0.601c-0.317,0.456-0.866,1.337-1.659,2.65l-1.967,3.263   c-0.166,0.278-0.34,0.574-0.515,0.88c-0.175,0.306-0.408,0.726-0.706,1.263c-0.457,0.825-0.709,1.437-0.758,1.839   c-0.049,0.403,0.044,0.813,0.274,1.224c0.099,0.185,0.279,0.389,0.546,0.624c0.008,0.015,0.019,0.026,0.026,0.031l0.025,0.014   c0.317,0.291,0.425,0.53,0.325,0.708c-0.053,0.096-0.142,0.15-0.269,0.151c-0.123,0.007-0.269-0.035-0.431-0.125   c-0.066-0.037-0.21-0.132-0.43-0.287c-0.769-0.518-1.501-0.974-2.208-1.366c-0.325-0.179-0.68-0.344-1.056-0.492   c-0.377-0.144-0.574-0.221-0.599-0.234c-0.101-0.055-0.171-0.144-0.211-0.269c-0.046-0.123-0.039-0.233,0.017-0.333   c0.037-0.067,0.092-0.118,0.171-0.161c0.074-0.046,0.141-0.058,0.2-0.047c0.029,0.005,0.059,0.011,0.089,0.017   c0.055,0.009,0.097,0.021,0.122,0.035c0.515,0.084,0.889,0.096,1.115,0.031c0.229-0.069,0.449-0.203,0.661-0.417   c0.464-0.434,1.354-1.639,2.67-3.62c1.316-1.981,2.646-4.183,3.988-6.605c0.616-1.112,1.006-2.05,1.166-2.82   c0.158-0.767,0.104-1.435-0.166-2.008c-0.054-0.149-0.199-0.328-0.429-0.542c-0.012-0.018-0.022-0.029-0.03-0.033   c0,0-0.011-0.011-0.031-0.034c-0.242-0.249-0.318-0.465-0.224-0.636c0.066-0.121,0.159-0.189,0.272-0.197   c0.111-0.014,0.257,0.028,0.427,0.123c0.071,0.04,0.26,0.16,0.561,0.365c0.3,0.205,0.574,0.378,0.815,0.512l0.195,0.108   c0.038,0.011,0.085,0.025,0.137,0.049c0.048,0.021,0.127,0.065,0.231,0.123c0.57,0.316,0.836,0.73,0.795,1.236l-0.001,0.032   l-1.051,16.348c-0.013,0.13-0.002,0.239,0.026,0.325c0.026,0.08,0.068,0.142,0.127,0.174c0.054,0.03,0.128,0.033,0.211,0.002   c0.084-0.024,0.195-0.087,0.334-0.18l13.724-9.482c0.018-0.012,0.048-0.027,0.096-0.055c0.234-0.158,0.486-0.16,0.753-0.013   l0.524,0.291c0.237,0.132,0.52,0.261,0.848,0.394c0.334,0.136,0.526,0.221,0.593,0.258c0.162,0.09,0.275,0.19,0.334,0.299   c0.066,0.107,0.065,0.216,0.008,0.32c-0.099,0.179-0.327,0.227-0.686,0.148l-0.013-0.007c-0.146-0.06-0.281-0.102-0.406-0.122   c-0.12-0.018-0.233-0.021-0.341-0.004c-0.353,0.027-0.648,0.13-0.887,0.313c-0.239,0.178-0.492,0.516-0.763,1.003l-0.175,0.316   l-5.95,11.331c-0.018,0.033-0.048,0.087-0.09,0.162c-0.657,1.247-0.784,2.172-0.371,2.771c0.08,0.121,0.217,0.278,0.41,0.467   c0.021,0.021,0.041,0.044,0.062,0.066l0.013,0.007c0.254,0.25,0.341,0.445,0.26,0.591c-0.064,0.117-0.162,0.176-0.29,0.182   c-0.135,0.007-0.293-0.042-0.48-0.146s-0.561-0.333-1.128-0.685c-0.56-0.354-1.033-0.639-1.416-0.851   c-0.375-0.208-0.776-0.397-1.21-0.578c-0.435-0.176-0.661-0.269-0.687-0.282c-0.129-0.072-0.213-0.146-0.25-0.226   c-0.037-0.08-0.029-0.163,0.02-0.25c0.064-0.117,0.142-0.188,0.241-0.22c0.1-0.032,0.277-0.02,0.548,0.032   c0.038,0.011,0.083,0.019,0.13,0.023c0.048,0.011,0.127,0.016,0.229,0.018c0.343,0.021,0.634-0.063,0.878-0.248   c0.246-0.179,0.518-0.541,0.815-1.078c0.051-0.091,0.134-0.252,0.255-0.49c0.118-0.233,0.216-0.419,0.287-0.548l4.234-7.982   c0.226-0.447,0.365-0.777,0.421-0.986c0.052-0.211,0.032-0.342-0.056-0.39c-0.083-0.046-0.218-0.028-0.41,0.044   c-0.189,0.075-0.432,0.218-0.726,0.425l-11.25,7.806c-0.218,0.157-0.393,0.256-0.521,0.293c-0.136,0.039-0.25,0.03-0.347-0.023   c-0.107-0.06-0.178-0.159-0.217-0.305c-0.036-0.14-0.043-0.334-0.014-0.574L190.589,30.162L190.589,30.162z M208.614,57.96   l18.903-4.359c0.084-0.016,0.162-0.044,0.23-0.077c0.071-0.036,0.136-0.085,0.194-0.141c0.096-0.093,0.135-0.203,0.11-0.338   c-0.019-0.135-0.097-0.271-0.232-0.411l-3.555-3.681c-0.595-0.616-1.144-1.006-1.648-1.173c-0.502-0.17-1.139-0.151-1.903,0.044   c-0.203,0.057-0.45,0.137-0.734,0.247c-0.339,0.128-0.558,0.142-0.661,0.035c-0.096-0.099-0.145-0.198-0.14-0.289   c-0.001-0.091,0.055-0.19,0.16-0.293c0.027-0.026,0.062-0.059,0.109-0.099c0.045-0.037,0.134-0.095,0.263-0.181l2.104-1.508   c0.235-0.174,0.401-0.255,0.502-0.247c0.102,0.015,0.273,0.146,0.521,0.403l7.661,7.934c0.278,0.288,0.433,0.502,0.464,0.637   c0.028,0.139-0.028,0.279-0.176,0.421c-0.239,0.231-0.501,0.365-0.777,0.4c-0.044,0.002-0.074,0.012-0.095,0.018l-18.008,4.129   c-0.051,0.009-0.115,0.025-0.189,0.044c-0.396,0.097-0.643,0.198-0.752,0.303c-0.12,0.116-0.146,0.273-0.072,0.474   c0.07,0.203,0.244,0.445,0.516,0.726l2.953,3.058c0.674,0.698,1.237,1.213,1.699,1.548c0.462,0.341,0.899,0.561,1.312,0.666   c0.365,0.097,0.785,0.155,1.253,0.167c0.467,0.011,0.749,0.063,0.842,0.159c0.057,0.059,0.082,0.139,0.073,0.233   c-0.009,0.102-0.047,0.185-0.112,0.248c-0.055,0.053-0.103,0.092-0.149,0.119c-0.045,0.023-0.099,0.042-0.149,0.051l-2.142,0.592   c-0.223,0.063-0.428,0.057-0.608-0.021c-0.184-0.074-0.43-0.273-0.74-0.595c-0.198-0.206-0.783-0.838-1.755-1.892   c-0.964-1.054-1.84-1.988-2.62-2.796c-0.794-0.821-1.654-1.645-2.579-2.472c-0.209-0.189-0.335-0.305-0.378-0.35l-0.341-0.353   c-0.284-0.294-0.436-0.499-0.464-0.617c-0.021-0.119,0.034-0.245,0.175-0.381c0.147-0.142,0.449-0.268,0.905-0.371L208.614,57.96   L208.614,57.96z M227.908,68.669l3.207,4.414c0.098,0.135,0.195,0.229,0.294,0.274c0.101,0.05,0.183,0.049,0.252-0.001   c0.058-0.042,0.152-0.163,0.273-0.352l0.026-0.037l3.886-6.047c0.059-0.089,0.097-0.182,0.114-0.271   c0.011-0.09,0.001-0.16-0.029-0.202c-0.039-0.054-0.102-0.091-0.189-0.115c-0.082-0.024-0.184-0.026-0.29-0.002l-7.149,1.383   c-0.119,0.015-0.214,0.038-0.301,0.065c-0.086,0.027-0.155,0.06-0.218,0.105c-0.096,0.07-0.136,0.169-0.121,0.294   C227.681,68.306,227.764,68.47,227.908,68.669L227.908,68.669z M220.705,68.149l18.334-3.547c0.185-0.029,0.315-0.035,0.384-0.014   c0.074,0.022,0.146,0.07,0.215,0.15c0.067,0.109,0.025,0.287-0.135,0.527c-0.01,0.019-0.016,0.035-0.019,0.048l-9.552,14.937   c-0.487,0.754-0.804,1.372-0.95,1.843c-0.144,0.475-0.166,0.921-0.065,1.342c0.038,0.167,0.129,0.389,0.262,0.669   c0.179,0.376,0.188,0.623,0.021,0.743c-0.096,0.07-0.182,0.097-0.258,0.082c-0.073-0.012-0.151-0.079-0.232-0.19   c-0.011-0.016-0.209-0.337-0.595-0.957c-0.382-0.623-0.781-1.221-1.195-1.791c-0.434-0.597-0.921-1.178-1.46-1.751   c-0.144-0.148-0.23-0.244-0.265-0.291c-0.042-0.058-0.053-0.138-0.034-0.234c0.025-0.094,0.066-0.166,0.125-0.208   c0.158-0.115,0.38-0.076,0.658,0.122c0.068,0.045,0.114,0.076,0.139,0.093c0.312,0.21,0.572,0.326,0.779,0.352   c0.21,0.03,0.41-0.027,0.599-0.164c0.104-0.076,0.214-0.191,0.333-0.336c0.115-0.149,0.239-0.327,0.371-0.541l2.249-3.457   c0.211-0.324,0.312-0.591,0.303-0.797c-0.004-0.208-0.109-0.45-0.305-0.719l-3.78-5.203c-0.179-0.247-0.369-0.403-0.576-0.469   c-0.201-0.066-0.545-0.046-1.035,0.057l-3.273,0.637c-0.377,0.08-0.676,0.155-0.889,0.233c-0.217,0.075-0.401,0.169-0.552,0.277   c-0.208,0.151-0.352,0.367-0.422,0.642c-0.071,0.275-0.057,0.594,0.041,0.964c0.026,0.117,0.091,0.27,0.193,0.46   c0.161,0.318,0.159,0.543-0.014,0.669c-0.089,0.064-0.181,0.084-0.266,0.063c-0.085-0.027-0.178-0.106-0.275-0.241   c-0.057-0.077-0.276-0.429-0.665-1.053c-0.385-0.626-0.756-1.186-1.111-1.675c-0.174-0.239-0.39-0.488-0.646-0.743   c-0.255-0.261-0.398-0.41-0.433-0.457c-0.047-0.065-0.063-0.153-0.051-0.257c0.02-0.103,0.07-0.187,0.151-0.246   c0.119-0.086,0.332-0.036,0.633,0.158l0.008,0.011c0.019,0.01,0.051,0.029,0.094,0.056c0.224,0.137,0.406,0.228,0.542,0.277   c0.279,0.085,0.618,0.122,1.019,0.113C219.501,68.33,220.032,68.268,220.705,68.149L220.705,68.149z M238.331,95.771l3.071-1.433   c0.38-0.177,0.641-0.382,0.79-0.615c0.148-0.232,0.224-0.545,0.226-0.935c-0.003-0.141-0.04-0.323-0.099-0.537   c-0.008-0.018-0.012-0.026-0.012-0.026c-0.071-0.266-0.094-0.45-0.07-0.545c0.026-0.101,0.093-0.174,0.191-0.22   c0.134-0.063,0.245-0.072,0.331-0.034c0.088,0.043,0.179,0.169,0.277,0.38c0.028,0.061,0.153,0.396,0.374,1.018   c0.222,0.621,0.457,1.194,0.705,1.725c0.193,0.414,0.444,0.875,0.752,1.388c0.055,0.095,0.1,0.168,0.133,0.216   c0.008,0.017,0.024,0.041,0.047,0.067c0.066,0.074,0.104,0.12,0.111,0.137c0.033,0.095,0.04,0.176,0.011,0.236   c-0.027,0.065-0.087,0.119-0.177,0.162c-0.104,0.048-0.196,0.065-0.28,0.052c-0.079-0.01-0.2-0.08-0.361-0.199   c-0.049-0.061-0.1-0.111-0.149-0.151c-0.052-0.044-0.102-0.084-0.161-0.12c-0.216-0.115-0.448-0.164-0.696-0.142   c-0.249,0.016-0.543,0.106-0.893,0.269l-4.004,1.867c-0.034,0.017-0.11,0.057-0.231,0.124c-0.116,0.065-0.218,0.117-0.3,0.155   c-0.307,0.143-0.641,0.047-1.01-0.285c-0.206-0.172-0.375-0.309-0.516-0.406l-0.273-0.193c-2.388-1.686-4.021-3.476-4.9-5.362   c-1.219-2.614-1.364-5.088-0.434-7.429c0.931-2.341,2.773-4.156,5.529-5.441c1.424-0.664,2.847-1.049,4.266-1.159   c1.421-0.106,2.807,0.062,4.155,0.51c1.227,0.41,2.287,1.04,3.169,1.884c0.886,0.842,1.642,1.934,2.268,3.275   c0.376,0.807,0.658,1.637,0.85,2.487c0.192,0.851,0.294,1.722,0.304,2.621c0.004,0.255-0.011,0.608-0.044,1.065   c-0.034,0.457-0.017,0.753,0.046,0.887c0.03,0.064,0.117,0.15,0.253,0.25c0.14,0.098,0.225,0.179,0.251,0.235   c0.036,0.078,0.02,0.154-0.04,0.229c-0.064,0.077-0.182,0.163-0.351,0.263l-2.582,1.524c-0.073,0.045-0.143,0.088-0.218,0.128   c-0.072,0.039-0.18,0.089-0.313,0.151c-0.16,0.074-0.277,0.103-0.354,0.086c-0.074-0.013-0.137-0.078-0.187-0.186   c-0.078-0.168,0.099-0.498,0.525-0.991c0.427-0.493,0.759-0.963,1.001-1.413c0.555-1.062,0.84-2.229,0.864-3.518   c0.019-1.29-0.229-2.487-0.749-3.6c-0.927-1.989-2.425-3.275-4.496-3.864c-2.07-0.589-4.262-0.344-6.579,0.736   c-2.696,1.257-4.604,2.977-5.714,5.159c-1.111,2.178-1.187,4.303-0.219,6.378c0.313,0.673,0.737,1.3,1.273,1.875   s1.121,1.042,1.761,1.4c0.418,0.23,0.845,0.336,1.288,0.318C237.187,96.21,237.714,96.058,238.331,95.771L238.331,95.771z    M253.966,100.038l-6.662,1.91c-0.252,0.072-0.396,0.208-0.439,0.403c-0.038,0.195,0.037,0.629,0.229,1.297l0.077,0.27   c0.495,1.726,1.154,2.883,1.982,3.478c0.829,0.594,1.919,0.698,3.269,0.311c1.396-0.4,2.354-1.17,2.878-2.311   s0.553-2.526,0.086-4.155c-0.175-0.608-0.357-0.987-0.55-1.14C254.639,99.949,254.35,99.927,253.966,100.038L253.966,100.038z    M239.765,101.802l11.888-3.408c0.777-0.223,1.31-0.44,1.595-0.655c0.29-0.212,0.506-0.497,0.654-0.861   c0.059-0.141,0.094-0.294,0.106-0.456c0.018-0.164,0.015-0.366-0.004-0.603c-0.031-0.244-0.027-0.404,0.013-0.489   c0.035-0.084,0.113-0.141,0.219-0.171c0.15-0.043,0.265-0.042,0.335,0.013c0.075,0.053,0.142,0.182,0.199,0.384   c0.023,0.082,0.098,0.428,0.218,1.037c0.119,0.604,0.255,1.165,0.4,1.673c0.057,0.197,0.241,0.752,0.557,1.663   c0.314,0.91,0.572,1.722,0.778,2.44c0.527,1.84,0.528,3.395,0.001,4.665c-0.523,1.264-1.515,2.108-2.975,2.527   c-1.024,0.294-2.044,0.264-3.053-0.095c-1.005-0.36-1.906-1.018-2.703-1.968l-3.892,4.528c-0.105,0.114-0.247,0.279-0.422,0.498   c-1.624,1.867-2.506,3.194-2.661,3.981c-0.043,0.215-0.052,0.495-0.021,0.828c0.026,0.334-0.028,0.523-0.175,0.565   c-0.188,0.054-0.343-0.005-0.472-0.177c-0.123-0.172-0.276-0.569-0.456-1.196c-0.255-0.888-0.247-1.722,0.029-2.504   c0.271-0.785,0.989-1.833,2.149-3.142l3.711-4.154c0.352-0.397,0.558-0.783,0.624-1.159c0.066-0.371-0.021-0.984-0.268-1.845   c-0.158-0.554-0.331-0.896-0.511-1.022c-0.18-0.127-0.46-0.136-0.835-0.028l-4.447,1.275c-0.796,0.228-1.344,0.459-1.647,0.695   c-0.308,0.241-0.521,0.565-0.655,0.979c-0.102,0.282-0.129,0.671-0.07,1.169c0.002,0.04,0.002,0.059,0.005,0.068   c0.04,0.281,0.041,0.474,0.005,0.573c-0.039,0.105-0.113,0.171-0.232,0.205c-0.143,0.041-0.253,0.033-0.323-0.021   c-0.076-0.058-0.143-0.187-0.202-0.393c-0.034-0.119-0.12-0.524-0.26-1.218c-0.144-0.691-0.296-1.326-0.46-1.898   c-0.271-0.947-0.581-1.854-0.925-2.726c-0.064-0.154-0.102-0.248-0.111-0.285c-0.04-0.137-0.037-0.247,0-0.342   c0.042-0.096,0.118-0.157,0.224-0.188c0.197-0.056,0.419,0.079,0.665,0.404l0.025,0.037c0.118,0.169,0.235,0.319,0.361,0.446   c0.121,0.128,0.257,0.238,0.395,0.322c0.31,0.199,0.629,0.311,0.953,0.336C238.422,102.128,238.978,102.028,239.765,101.802   L239.765,101.802z M249.157,122.156l0.476,5.435c0.015,0.166,0.05,0.297,0.11,0.387c0.061,0.095,0.132,0.137,0.217,0.129   c0.071-0.006,0.214-0.062,0.416-0.161l0.041-0.018l6.444-3.182c0.097-0.047,0.177-0.106,0.238-0.174   c0.056-0.071,0.084-0.136,0.079-0.188c-0.006-0.066-0.04-0.13-0.104-0.196c-0.058-0.062-0.144-0.116-0.247-0.15l-6.841-2.498   c-0.109-0.048-0.203-0.078-0.291-0.099c-0.087-0.021-0.165-0.028-0.24-0.022c-0.118,0.01-0.204,0.075-0.256,0.19   C249.148,121.728,249.136,121.91,249.157,122.156L249.157,122.156z M243.251,118l17.542,6.402c0.173,0.071,0.288,0.132,0.336,0.186   c0.053,0.058,0.088,0.135,0.106,0.239c0.002,0.129-0.125,0.259-0.387,0.383c-0.018,0.011-0.031,0.021-0.04,0.031l-15.881,7.883   c-0.807,0.396-1.396,0.762-1.764,1.091c-0.367,0.333-0.616,0.704-0.747,1.117c-0.053,0.162-0.09,0.399-0.12,0.708   c-0.04,0.414-0.16,0.631-0.364,0.648c-0.118,0.01-0.206-0.011-0.263-0.063c-0.058-0.048-0.09-0.146-0.102-0.282   c-0.002-0.02-0.006-0.396-0.018-1.126c-0.007-0.73-0.041-1.449-0.102-2.151c-0.064-0.735-0.183-1.484-0.351-2.253   c-0.046-0.201-0.071-0.328-0.076-0.385c-0.007-0.071,0.025-0.146,0.091-0.218c0.07-0.068,0.144-0.108,0.214-0.114   c0.195-0.017,0.365,0.131,0.503,0.443c0.035,0.074,0.059,0.124,0.07,0.151c0.159,0.34,0.322,0.574,0.486,0.703   c0.165,0.134,0.366,0.188,0.598,0.167c0.129-0.011,0.282-0.053,0.458-0.116c0.176-0.068,0.374-0.157,0.598-0.272l3.708-1.806   c0.348-0.169,0.571-0.346,0.671-0.527c0.103-0.181,0.138-0.442,0.108-0.774l-0.561-6.406c-0.026-0.303-0.108-0.535-0.252-0.699   c-0.139-0.16-0.444-0.32-0.917-0.484l-3.134-1.14c-0.364-0.125-0.659-0.214-0.883-0.257c-0.224-0.047-0.431-0.063-0.615-0.046   c-0.256,0.022-0.49,0.133-0.692,0.333s-0.354,0.48-0.461,0.848c-0.038,0.114-0.062,0.278-0.072,0.494   c-0.025,0.356-0.143,0.548-0.356,0.566c-0.108,0.01-0.197-0.021-0.26-0.082c-0.059-0.067-0.098-0.183-0.112-0.349   c-0.008-0.095-0.016-0.51-0.027-1.245c-0.007-0.735-0.037-1.407-0.09-2.009c-0.025-0.294-0.083-0.619-0.171-0.969   c-0.084-0.356-0.13-0.558-0.135-0.614c-0.007-0.081,0.024-0.164,0.088-0.247c0.07-0.078,0.156-0.124,0.257-0.132   c0.146-0.013,0.303,0.141,0.461,0.461l0.001,0.014c0.011,0.018,0.028,0.05,0.052,0.096c0.12,0.233,0.23,0.405,0.322,0.517   c0.195,0.217,0.467,0.423,0.813,0.622C242.126,117.535,242.613,117.755,243.251,118L243.251,118z M253.247,141.198   c-0.447-0.031-0.726,0.007-0.848,0.108c-0.117,0.106-0.189,0.33-0.215,0.687l-0.141,2.013c-0.103,1.468,0.069,2.549,0.521,3.248   c0.448,0.694,1.213,1.082,2.286,1.157c1.339,0.094,2.481-0.337,3.436-1.297c0.949-0.959,1.481-2.21,1.59-3.764   c0.048-0.692-0.024-1.155-0.219-1.384c-0.193-0.229-0.604-0.362-1.235-0.406L253.247,141.198L253.247,141.198z M243.788,140.537   c-0.808-0.057-1.363,0.124-1.679,0.541c-0.311,0.413-0.519,1.329-0.617,2.739c-0.12,1.724,0.16,3.046,0.84,3.962   c0.681,0.92,1.766,1.431,3.247,1.534c1.596,0.111,2.871-0.314,3.836-1.283c0.96-0.968,1.507-2.375,1.636-4.232l0.122-1.737   c0.03-0.438-0.007-0.716-0.118-0.839c-0.105-0.127-0.386-0.203-0.842-0.235L243.788,140.537L243.788,140.537z M245.016,138.399   l12.337,0.863c0.75,0.052,1.311,0.02,1.686-0.093c0.37-0.112,0.687-0.329,0.951-0.645c0.105-0.136,0.191-0.277,0.261-0.439   c0.072-0.157,0.14-0.357,0.204-0.606c0.066-0.258,0.13-0.42,0.188-0.492c0.062-0.067,0.149-0.1,0.259-0.092   c0.147,0.01,0.249,0.056,0.305,0.141c0.057,0.085,0.074,0.243,0.058,0.486c-0.007,0.094-0.057,0.463-0.154,1.114   c-0.099,0.652-0.165,1.263-0.205,1.838c-0.025,0.36-0.044,0.966-0.05,1.805c-0.007,0.844-0.029,1.511-0.064,2.004   c-0.143,2.042-0.676,3.604-1.602,4.688c-0.92,1.086-2.138,1.578-3.652,1.472c-0.869-0.061-1.623-0.333-2.248-0.815   c-0.63-0.479-1.144-1.178-1.548-2.093l-0.261-0.019c-0.351,1.393-0.977,2.437-1.879,3.128c-0.898,0.69-2.017,0.989-3.351,0.896   c-1.885-0.132-3.337-0.868-4.354-2.213c-1.018-1.346-1.453-3.104-1.301-5.283c0.053-0.745,0.157-1.63,0.315-2.664   c0.153-1.034,0.242-1.687,0.262-1.967c0.058-0.826,0.07-1.693,0.044-2.611c-0.004-0.225-0.003-0.363,0.001-0.421   c0.005-0.07,0.053-0.139,0.138-0.204c0.091-0.065,0.179-0.093,0.273-0.086c0.195,0.014,0.345,0.191,0.449,0.537l-0.001,0.014   c0.085,0.226,0.167,0.408,0.235,0.537c0.071,0.134,0.153,0.249,0.247,0.347c0.234,0.269,0.521,0.471,0.869,0.6   C243.771,138.26,244.299,138.35,245.016,138.399L245.016,138.399z M243.479,153.718l12.178,2.147   c0.797,0.14,1.371,0.178,1.721,0.109c0.354-0.063,0.669-0.229,0.954-0.503c0.221-0.184,0.411-0.494,0.572-0.915   c0.001-0.009,0.003-0.019,0.005-0.027c0.091-0.24,0.175-0.39,0.249-0.454c0.078-0.059,0.179-0.08,0.31-0.057   c0.136,0.023,0.228,0.083,0.265,0.172c0.041,0.095,0.044,0.245,0.007,0.456c-0.012,0.065-0.101,0.402-0.271,1.021   c-0.172,0.617-0.304,1.197-0.401,1.751c-0.171,0.971-0.286,1.927-0.351,2.867c-0.01,0.167-0.018,0.263-0.022,0.291   c-0.023,0.131-0.079,0.228-0.164,0.3c-0.089,0.066-0.186,0.093-0.284,0.076c-0.112-0.021-0.194-0.074-0.256-0.166   c-0.062-0.089-0.104-0.29-0.137-0.596c-0.03-0.261-0.067-0.466-0.109-0.613c-0.045-0.153-0.104-0.289-0.178-0.413   c-0.16-0.274-0.374-0.486-0.652-0.632c-0.273-0.15-0.823-0.295-1.648-0.441l-12.206-2.152c-0.807-0.142-1.399-0.179-1.777-0.115   c-0.379,0.064-0.714,0.237-1.01,0.519c-0.225,0.202-0.41,0.513-0.559,0.917c-0.014,0.026-0.022,0.044-0.023,0.054   c-0.082,0.241-0.162,0.396-0.238,0.47c-0.079,0.068-0.176,0.095-0.298,0.073c-0.146-0.025-0.242-0.081-0.279-0.17   c-0.043-0.085-0.043-0.249-0.001-0.488c0.051-0.286,0.162-0.754,0.337-1.415c0.169-0.656,0.291-1.186,0.362-1.589   c0.152-0.862,0.26-1.747,0.327-2.649c0.013-0.186,0.022-0.295,0.029-0.333c0.026-0.149,0.078-0.252,0.153-0.32   c0.08-0.068,0.176-0.09,0.283-0.071c0.201,0.035,0.344,0.244,0.426,0.626c0.005,0.03,0.006,0.05,0.004,0.059   c0.032,0.204,0.072,0.385,0.13,0.555c0.054,0.164,0.127,0.322,0.212,0.468c0.2,0.32,0.447,0.562,0.746,0.73   C242.177,153.43,242.71,153.582,243.479,153.718L243.479,153.718z"/>
	<path fill-rule="evenodd" clip-rule="evenodd" d="M242.237,160.52l11.945,3.2c0.781,0.209,1.349,0.298,1.702,0.269   c0.358-0.032,0.688-0.16,1.003-0.396c0.125-0.099,0.235-0.218,0.33-0.35c0.101-0.136,0.201-0.311,0.311-0.533   c0.1-0.225,0.187-0.363,0.266-0.422c0.078-0.053,0.171-0.067,0.276-0.039c0.158,0.053,0.259,0.119,0.291,0.201   c0.037,0.084,0.033,0.227-0.013,0.436c-0.011,0.037-0.053,0.158-0.129,0.369c-0.494,1.459-0.965,3.014-1.407,4.664   c-0.537,2.005-0.998,4.021-1.391,6.054c-0.071,0.375-0.116,0.6-0.136,0.673c-0.061,0.226-0.141,0.357-0.232,0.406   c-0.097,0.048-0.252,0.041-0.468-0.017l-0.175-0.047c-0.01-0.003-0.026-0.013-0.052-0.029c-0.021-0.015-0.065-0.032-0.13-0.049   l-2.212-0.795c-0.22-0.078-0.363-0.151-0.426-0.213c-0.065-0.066-0.086-0.156-0.066-0.265c0.03-0.114,0.097-0.195,0.201-0.236   c0.099-0.038,0.231-0.036,0.393,0.007c0.036,0.01,0.091,0.029,0.157,0.057c0.071,0.029,0.12,0.047,0.147,0.055   c0.672,0.18,1.209,0.067,1.605-0.344c0.399-0.405,0.77-1.253,1.114-2.54l0.516-1.927c0.243-0.905,0.321-1.511,0.237-1.804   c-0.083-0.298-0.338-0.505-0.771-0.62l-5.683-1.523c-0.496-0.133-0.81-0.157-0.942-0.069c-0.135,0.082-0.255,0.325-0.363,0.73   l-0.607,2.267c-0.225,0.841-0.321,1.476-0.291,1.897c0.029,0.422,0.179,0.787,0.442,1.09c0.128,0.147,0.348,0.319,0.665,0.514   c0.317,0.198,0.455,0.383,0.409,0.553c-0.026,0.097-0.103,0.16-0.224,0.19c-0.127,0.031-0.281,0.019-0.47-0.031   c-0.046-0.013-0.34-0.111-0.891-0.298c-0.553-0.183-1.095-0.348-1.623-0.489c-0.506-0.136-1.05-0.241-1.634-0.324   c-0.156-0.022-0.256-0.039-0.302-0.052c-0.16-0.043-0.288-0.116-0.378-0.224c-0.096-0.104-0.126-0.212-0.1-0.308   c0.061-0.226,0.319-0.31,0.773-0.257c0.32,0.037,0.563,0.053,0.729,0.038c0.427-0.049,0.771-0.247,1.031-0.591   c0.26-0.345,0.503-0.94,0.729-1.781l0.696-2.603c0.092-0.34,0.097-0.58,0.019-0.71c-0.083-0.135-0.313-0.251-0.698-0.354   l-5.628-1.508c-0.689-0.185-1.194-0.157-1.51,0.078c-0.315,0.241-0.592,0.813-0.834,1.718c-0.299,1.113-0.465,2.212-0.499,3.297   c-0.039,1.083,0.061,1.997,0.294,2.745c0.139,0.421,0.366,0.842,0.684,1.257s0.458,0.68,0.43,0.785   c-0.02,0.074-0.077,0.122-0.176,0.141c-0.095,0.023-0.216,0.016-0.362-0.023c-0.258-0.069-0.574-0.248-0.952-0.531   c-0.377-0.283-0.689-0.589-0.943-0.912c-0.406-0.563-0.656-1.098-0.755-1.598c-0.097-0.504-0.05-1.098,0.132-1.778   c0.049-0.179,0.244-0.802,0.586-1.873c0.345-1.065,0.636-2.042,0.875-2.935c0.426-1.591,0.773-3.109,1.048-4.553   c0.036-0.212,0.062-0.344,0.074-0.39c0.017-0.06,0.065-0.115,0.153-0.166c0.087-0.05,0.169-0.063,0.247-0.042   c0.115,0.031,0.203,0.089,0.264,0.175c0.063,0.08,0.113,0.242,0.151,0.483c0.005,0.021,0.009,0.042,0.014,0.063   c0.054,0.37,0.145,0.654,0.278,0.854c0.176,0.299,0.412,0.539,0.71,0.718C240.985,160.134,241.502,160.322,242.237,160.52   L242.237,160.52z M238.929,174.977l6.69,3.239c0.157,0.08,0.332,0.168,0.513,0.254c0.185,0.088,0.454,0.208,0.803,0.363   c1.187,0.528,2.147,0.852,2.873,0.966c0.729,0.116,1.379,0.062,1.957-0.16c0.41-0.161,0.796-0.453,1.159-0.87   c0.362-0.416,0.641-0.585,0.827-0.501c0.109,0.048,0.174,0.113,0.192,0.2c0.019,0.086-0.009,0.22-0.084,0.41   c-0.02,0.044-0.094,0.188-0.229,0.435c-0.135,0.242-0.248,0.463-0.335,0.658l-0.312,0.7c-0.114,0.257-0.214,0.421-0.294,0.495   c-0.086,0.076-0.211,0.135-0.373,0.183l-19.504,6.229c-0.121,0.051-0.204,0.086-0.246,0.109c-0.044,0.027-0.072,0.057-0.082,0.078   c-0.012,0.026,0.019,0.065,0.082,0.109c0.067,0.046,0.18,0.101,0.331,0.168l8.893,3.959c1.322,0.589,2.297,0.939,2.915,1.048   c0.62,0.104,1.114,0.038,1.486-0.202c0.307-0.208,0.623-0.531,0.955-0.962c0.328-0.432,0.579-0.611,0.749-0.536   c0.092,0.041,0.161,0.108,0.203,0.199c0.04,0.086,0.043,0.171,0.011,0.245c-0.023,0.052-0.172,0.293-0.453,0.726   c-0.279,0.428-0.514,0.86-0.707,1.295c-0.215,0.483-0.414,1.024-0.59,1.619c-0.179,0.598-0.285,0.931-0.315,1   c-0.08,0.157-0.165,0.266-0.261,0.327c-0.093,0.058-0.187,0.067-0.277,0.027c-0.096-0.043-0.16-0.098-0.191-0.168   c-0.035-0.073-0.043-0.207-0.028-0.403c0,0-0.001-0.011-0.002-0.032c0.023-0.24,0.019-0.44-0.028-0.591   c-0.103-0.333-0.336-0.65-0.696-0.951c-0.361-0.302-0.848-0.591-1.469-0.868l-14.346-6.387c-0.278-0.124-0.451-0.227-0.517-0.313   c-0.062-0.085-0.07-0.183-0.021-0.291c0.026-0.061,0.084-0.119,0.164-0.172c0.088-0.055,0.215-0.107,0.377-0.155l18.44-5.795   c0.097-0.03,0.181-0.065,0.258-0.099c0.079-0.038,0.121-0.062,0.125-0.069c0.02-0.044,0.009-0.091-0.03-0.145   c-0.038-0.054-0.101-0.102-0.192-0.152l-9.094-4.325c-0.144-0.064-0.328-0.152-0.555-0.264c-0.228-0.111-0.386-0.188-0.478-0.228   c-0.713-0.317-1.259-0.472-1.64-0.459c-0.375,0.01-0.754,0.17-1.136,0.479c-0.158,0.134-0.327,0.35-0.507,0.66l-0.012,0.026   c-0.105,0.188-0.191,0.301-0.269,0.344c-0.077,0.044-0.164,0.042-0.265-0.003c-0.126-0.056-0.197-0.129-0.212-0.225   c-0.016-0.095,0.035-0.266,0.148-0.522c0.064-0.144,0.267-0.538,0.604-1.18c0.335-0.648,0.616-1.221,0.845-1.734   c0.132-0.295,0.255-0.631,0.374-1.005c0.116-0.376,0.185-0.59,0.208-0.643c0.057-0.126,0.119-0.208,0.184-0.236   c0.063-0.034,0.14-0.031,0.226,0.007c0.205,0.092,0.295,0.335,0.27,0.73l-0.006,0.013c0.001,0.021,0,0.036-0.004,0.044   c-0.034,0.287-0.045,0.512-0.025,0.678c0.116,0.874,1.052,1.733,2.804,2.571C238.863,174.947,238.902,174.965,238.929,174.977   L238.929,174.977z M227.9,189.889l3.042,1.16c0.066,0.019,0.131,0.042,0.2,0.074s0.156,0.081,0.266,0.149   c0.138,0.086,0.219,0.171,0.253,0.26c0.033,0.082,0.021,0.175-0.038,0.268c-0.108,0.174-0.47,0.195-1.079,0.066   c-0.549-0.119-1.021-0.2-1.412-0.237c-0.992-0.092-1.94,0.096-2.846,0.574c-0.906,0.472-1.651,1.179-2.237,2.115   c-0.764,1.224-1.042,2.414-0.827,3.569c0.213,1.16,0.876,2.085,1.978,2.773c0.912,0.57,1.807,0.747,2.67,0.523   c0.865-0.217,2.028-0.972,3.483-2.269c1.729-1.536,3.181-2.44,4.352-2.714c1.174-0.271,2.383-0.016,3.627,0.762   c1.312,0.819,2.069,1.979,2.279,3.474c0.211,1.495-0.18,3.036-1.168,4.618c-0.553,0.885-1.336,1.697-2.352,2.443   c-0.27,0.207-0.429,0.344-0.472,0.412c-0.07,0.113-0.104,0.267-0.112,0.469c-0.002,0.201-0.014,0.317-0.033,0.35   c-0.023,0.036-0.078,0.053-0.163,0.044c-0.08-0.005-0.174-0.035-0.271-0.085l-3.174-1.506c-0.045-0.018-0.091-0.034-0.142-0.061   s-0.111-0.064-0.192-0.115c-0.117-0.073-0.19-0.152-0.213-0.233c-0.028-0.08-0.012-0.17,0.047-0.263   c0.116-0.186,0.399-0.228,0.854-0.129c0.455,0.1,0.844,0.141,1.163,0.133c1.123,0,2.043-0.189,2.766-0.563   c0.724-0.378,1.347-0.988,1.874-1.832c0.643-1.029,0.892-2.064,0.745-3.098c-0.149-1.036-0.651-1.822-1.512-2.359   c-0.774-0.484-1.51-0.646-2.22-0.489c-0.703,0.155-1.775,0.838-3.207,2.043c-1.19,1.023-2.063,1.72-2.625,2.081   c-0.556,0.359-1.075,0.607-1.554,0.735c-0.812,0.229-1.604,0.276-2.375,0.144c-0.772-0.129-1.557-0.445-2.353-0.942   c-1.554-0.971-2.451-2.273-2.698-3.909c-0.244-1.629,0.21-3.371,1.362-5.216c0.709-1.135,1.479-2.007,2.302-2.614   C226.712,189.887,227.384,189.684,227.9,189.889L227.9,189.889z M221.317,203.563l9.744,7.613c0.638,0.498,1.126,0.801,1.468,0.904   c0.343,0.111,0.699,0.111,1.079,0.003c0.281-0.058,0.595-0.242,0.935-0.538c0.006-0.008,0.011-0.015,0.018-0.022   c0.192-0.169,0.337-0.262,0.433-0.284c0.097-0.015,0.195,0.014,0.3,0.096c0.109,0.085,0.161,0.18,0.152,0.276   c-0.007,0.103-0.076,0.236-0.207,0.405c-0.041,0.053-0.278,0.309-0.72,0.773s-0.83,0.916-1.176,1.358   c-0.606,0.776-1.157,1.566-1.656,2.366c-0.087,0.144-0.139,0.225-0.156,0.247c-0.082,0.104-0.176,0.164-0.285,0.188   c-0.109,0.017-0.208-0.005-0.286-0.066c-0.09-0.07-0.138-0.156-0.148-0.267c-0.013-0.107,0.044-0.304,0.159-0.59   c0.095-0.245,0.158-0.443,0.191-0.593c0.031-0.156,0.044-0.304,0.036-0.449c-0.012-0.317-0.102-0.604-0.279-0.864   c-0.171-0.26-0.588-0.646-1.248-1.162l-9.768-7.631c-0.645-0.504-1.151-0.815-1.515-0.937c-0.365-0.121-0.741-0.126-1.136-0.017   c-0.292,0.073-0.602,0.26-0.923,0.547c-0.024,0.018-0.04,0.029-0.046,0.036c-0.186,0.176-0.329,0.275-0.431,0.304   c-0.103,0.023-0.2,0.001-0.298-0.074c-0.116-0.092-0.175-0.186-0.166-0.282c0.002-0.095,0.079-0.24,0.229-0.432   c0.178-0.229,0.497-0.59,0.961-1.091c0.457-0.501,0.814-0.91,1.066-1.233c0.539-0.689,1.049-1.42,1.532-2.186   c0.099-0.158,0.159-0.25,0.182-0.279c0.095-0.12,0.188-0.187,0.286-0.212c0.103-0.022,0.197,0.003,0.284,0.07   c0.161,0.126,0.188,0.377,0.082,0.753c-0.011,0.028-0.019,0.046-0.024,0.054c-0.067,0.195-0.117,0.374-0.146,0.551   c-0.03,0.169-0.039,0.344-0.032,0.512c0.025,0.377,0.131,0.706,0.315,0.996C220.302,202.697,220.702,203.082,221.317,203.563   L221.317,203.563z M216.09,206.503l2.765,1.72c0.062,0.031,0.12,0.066,0.183,0.111c0.062,0.045,0.139,0.109,0.232,0.197   c0.118,0.11,0.183,0.209,0.199,0.303c0.017,0.087-0.014,0.176-0.089,0.256c-0.14,0.149-0.498,0.102-1.072-0.142   c-0.517-0.221-0.964-0.391-1.341-0.502c-0.957-0.279-1.923-0.276-2.903,0.021c-0.979,0.29-1.846,0.843-2.6,1.65   c-0.983,1.055-1.483,2.17-1.492,3.346c-0.013,1.18,0.461,2.214,1.411,3.1c0.787,0.733,1.631,1.078,2.521,1.023   c0.891-0.048,2.176-0.567,3.852-1.563c1.99-1.178,3.589-1.789,4.789-1.834c1.204-0.042,2.343,0.44,3.415,1.439   c1.132,1.056,1.654,2.337,1.576,3.846c-0.079,1.508-0.756,2.946-2.029,4.311c-0.71,0.762-1.634,1.411-2.774,1.949   c-0.304,0.152-0.485,0.256-0.541,0.315c-0.091,0.097-0.153,0.241-0.2,0.438c-0.04,0.197-0.073,0.31-0.1,0.337   c-0.029,0.031-0.086,0.037-0.168,0.013c-0.078-0.021-0.164-0.068-0.25-0.136l-2.828-2.084c-0.041-0.025-0.082-0.051-0.128-0.086   c-0.044-0.036-0.097-0.085-0.166-0.149c-0.102-0.094-0.158-0.187-0.165-0.271c-0.013-0.084,0.021-0.169,0.097-0.249   c0.148-0.16,0.436-0.146,0.862,0.037c0.428,0.184,0.803,0.299,1.117,0.352c1.103,0.215,2.042,0.205,2.821-0.024   c0.783-0.233,1.511-0.713,2.189-1.44c0.828-0.888,1.269-1.856,1.323-2.898c0.052-1.046-0.292-1.913-1.033-2.604   c-0.669-0.623-1.359-0.923-2.086-0.903c-0.721,0.018-1.903,0.483-3.538,1.393c-1.364,0.778-2.353,1.295-2.975,1.542   c-0.614,0.247-1.172,0.392-1.665,0.425c-0.84,0.07-1.628-0.033-2.358-0.311c-0.733-0.275-1.443-0.735-2.13-1.374   c-1.34-1.25-1.973-2.7-1.902-4.353c0.07-1.646,0.849-3.27,2.332-4.86c0.912-0.979,1.834-1.688,2.758-2.127   C214.924,206.274,215.622,206.203,216.09,206.503L216.09,206.503z"/>
	<path fill-rule="evenodd" clip-rule="evenodd" d="M84.628,234.907c-0.006-0.127-0.021-0.232-0.055-0.32   c-0.032-0.093-0.066-0.145-0.109-0.164c-0.096-0.043-0.276,0.174-0.55,0.651c-0.277,0.48-0.747,1.407-1.422,2.784l-1.675,3.423   c-0.141,0.292-0.289,0.602-0.436,0.921c-0.148,0.32-0.343,0.76-0.593,1.32c-0.384,0.861-0.581,1.492-0.595,1.897   c-0.014,0.405,0.115,0.807,0.38,1.195c0.114,0.176,0.313,0.363,0.599,0.574c0.009,0.015,0.02,0.024,0.029,0.028l0.026,0.012   c0.342,0.262,0.47,0.49,0.386,0.678c-0.044,0.1-0.129,0.161-0.254,0.174c-0.123,0.018-0.271-0.012-0.44-0.088   c-0.07-0.031-0.22-0.113-0.453-0.248c-0.811-0.449-1.58-0.839-2.319-1.168c-0.339-0.151-0.707-0.284-1.094-0.398   c-0.389-0.11-0.591-0.17-0.618-0.182c-0.104-0.046-0.183-0.128-0.233-0.249c-0.057-0.119-0.059-0.229-0.013-0.334   c0.031-0.069,0.082-0.125,0.156-0.176c0.07-0.052,0.135-0.069,0.195-0.063c0.03,0.003,0.06,0.006,0.09,0.009   c0.056,0.003,0.099,0.012,0.125,0.023c0.52,0.039,0.894,0.018,1.114-0.066c0.222-0.089,0.43-0.241,0.622-0.474   c0.424-0.473,1.207-1.75,2.345-3.838s2.271-4.397,3.397-6.929c0.517-1.161,0.823-2.129,0.916-2.911   c0.09-0.777-0.022-1.438-0.341-1.985c-0.066-0.145-0.227-0.31-0.474-0.503c-0.013-0.017-0.024-0.026-0.033-0.031   c0,0-0.011-0.01-0.034-0.03c-0.264-0.227-0.358-0.436-0.279-0.614c0.056-0.126,0.142-0.202,0.254-0.22   c0.11-0.024,0.258,0.006,0.437,0.085c0.074,0.033,0.272,0.137,0.589,0.314s0.605,0.326,0.857,0.439l0.205,0.091   c0.039,0.007,0.086,0.018,0.14,0.036c0.05,0.017,0.133,0.054,0.241,0.103c0.596,0.265,0.897,0.654,0.9,1.161l0.001,0.032   l0.378,16.378c0,0.13,0.019,0.237,0.055,0.321c0.033,0.077,0.081,0.135,0.142,0.162c0.057,0.024,0.131,0.021,0.21-0.017   c0.082-0.031,0.188-0.104,0.317-0.208l12.845-10.642c0.017-0.014,0.046-0.031,0.091-0.063c0.22-0.179,0.47-0.202,0.749-0.078   l0.548,0.243c0.248,0.111,0.54,0.215,0.879,0.319c0.343,0.105,0.542,0.174,0.612,0.205c0.17,0.075,0.291,0.165,0.36,0.269   c0.074,0.102,0.083,0.21,0.035,0.318c-0.083,0.188-0.306,0.255-0.67,0.207l-0.013-0.006c-0.151-0.047-0.289-0.076-0.415-0.086   c-0.122-0.007-0.234,0-0.34,0.026c-0.349,0.058-0.635,0.186-0.856,0.39c-0.224,0.197-0.446,0.557-0.672,1.065l-0.147,0.331   L95.78,250.81c-0.016,0.035-0.041,0.091-0.075,0.17c-0.547,1.299-0.593,2.231-0.128,2.793c0.09,0.112,0.239,0.257,0.449,0.429   c0.022,0.021,0.045,0.041,0.067,0.062l0.013,0.005c0.274,0.227,0.378,0.414,0.311,0.566c-0.054,0.122-0.147,0.189-0.274,0.206   c-0.133,0.019-0.295-0.017-0.491-0.104c-0.195-0.088-0.588-0.283-1.183-0.584c-0.589-0.305-1.085-0.547-1.485-0.725   c-0.392-0.174-0.808-0.328-1.255-0.47c-0.449-0.138-0.683-0.21-0.709-0.222c-0.134-0.061-0.225-0.127-0.269-0.203   c-0.044-0.077-0.043-0.16-0.003-0.252c0.054-0.121,0.125-0.199,0.222-0.239c0.096-0.041,0.275-0.045,0.549-0.017   c0.039,0.007,0.084,0.011,0.131,0.011c0.049,0.007,0.128,0.005,0.23-0.001c0.342-0.009,0.625-0.117,0.853-0.324   c0.23-0.199,0.468-0.584,0.718-1.145c0.043-0.096,0.112-0.263,0.211-0.51c0.098-0.243,0.179-0.437,0.239-0.571l3.522-8.321   c0.186-0.465,0.296-0.806,0.334-1.019c0.033-0.215,0.001-0.343-0.089-0.384c-0.087-0.039-0.221-0.01-0.406,0.08   c-0.182,0.092-0.411,0.255-0.686,0.486l-10.526,8.757c-0.203,0.175-0.368,0.289-0.494,0.337c-0.132,0.051-0.247,0.052-0.347,0.008   c-0.113-0.051-0.192-0.143-0.243-0.285c-0.049-0.137-0.073-0.33-0.064-0.57L84.628,234.907L84.628,234.907z M104.202,253.937   c-0.077,0.334-0.112,0.59-0.104,0.768c0.003,0.177,0.05,0.314,0.135,0.412c0.283,0.339,0.793,0.691,1.53,1.052   c0.737,0.361,1.537,0.644,2.395,0.842c2.491,0.574,4.571,0.322,6.243-0.763c1.672-1.084,2.81-2.922,3.407-5.51   c0.687-2.973,0.373-5.532-0.939-7.677c-1.313-2.145-3.435-3.553-6.361-4.229c-1.095-0.253-1.839-0.308-2.24-0.16   c-0.396,0.147-0.679,0.591-0.848,1.323L104.202,253.937L104.202,253.937z M102.072,253.172l3.012-13.047   c0.156-0.677,0.203-1.175,0.139-1.492c-0.069-0.313-0.245-0.608-0.533-0.885c-0.148-0.142-0.384-0.284-0.701-0.436   c-0.035-0.018-0.057-0.027-0.066-0.03c-0.235-0.103-0.382-0.186-0.443-0.258c-0.057-0.072-0.076-0.16-0.05-0.271   c0.021-0.089,0.094-0.154,0.217-0.199c0.127-0.044,0.274-0.045,0.445-0.005c0.009,0.002,0.316,0.093,0.919,0.275   c0.602,0.183,1.201,0.341,1.799,0.479c0.459,0.106,1.224,0.264,2.291,0.466c1.063,0.201,1.888,0.372,2.477,0.509   c3.334,0.77,5.761,2.214,7.275,4.332c1.513,2.123,1.929,4.656,1.247,7.61c-0.703,3.043-2.234,5.254-4.595,6.634   c-2.359,1.375-5.172,1.688-8.433,0.936c-0.895-0.207-1.867-0.46-2.907-0.76c-1.046-0.295-1.651-0.464-1.823-0.503   c-0.557-0.129-1.122-0.201-1.698-0.222c-0.577-0.021-0.873-0.03-0.881-0.032c-0.125-0.029-0.233-0.093-0.317-0.195   c-0.089-0.099-0.121-0.194-0.103-0.272c0.029-0.126,0.1-0.222,0.206-0.28c0.112-0.062,0.307-0.101,0.59-0.123   c0.042-0.009,0.098-0.021,0.178-0.032c0.28-0.047,0.48-0.108,0.597-0.174c0.283-0.146,0.508-0.356,0.681-0.64   C101.763,254.277,101.924,253.816,102.072,253.172L102.072,253.172z M137.505,259.638c-1.074,0.688-2.244,1.18-3.5,1.473   c-1.261,0.294-2.632,0.389-4.118,0.285c-2.997-0.21-5.299-1.272-6.906-3.193c-1.607-1.921-2.305-4.437-2.088-7.542   c0.11-1.567,0.458-2.998,1.05-4.293c0.586-1.29,1.399-2.411,2.435-3.365c0.928-0.856,1.979-1.475,3.149-1.847   c1.171-0.376,2.488-0.513,3.941-0.411c0.855,0.061,1.67,0.203,2.442,0.424c0.772,0.221,1.528,0.536,2.272,0.941   c0.327,0.171,0.691,0.421,1.103,0.745c0.411,0.329,0.682,0.496,0.81,0.506c0.085,0.006,0.202-0.029,0.36-0.109   c0.153-0.074,0.257-0.115,0.313-0.111c0.086,0.006,0.144,0.058,0.185,0.156c0.041,0.094,0.064,0.238,0.069,0.434l0.068,2.983   c0.004,0.076,0.009,0.157,0.007,0.238c-0.001,0.086-0.009,0.195-0.018,0.333c-0.014,0.189-0.046,0.312-0.099,0.38   c-0.048,0.068-0.131,0.096-0.24,0.088c-0.223-0.016-0.436-0.316-0.638-0.898c-0.139-0.411-0.265-0.725-0.383-0.947   c-0.71-1.319-1.605-2.355-2.697-3.119c-1.087-0.759-2.279-1.186-3.58-1.276c-2.218-0.155-4.073,0.517-5.576,2.02   s-2.347,3.544-2.527,6.122c-0.209,2.996,0.35,5.502,1.684,7.514c1.333,2.017,3.124,3.101,5.379,3.259   c1.021,0.071,2.042-0.058,3.062-0.388c1.02-0.329,1.933-0.829,2.743-1.497c0.39-0.316,0.763-0.744,1.134-1.275   c0.366-0.533,0.628-0.797,0.789-0.785c0.071,0.005,0.131,0.048,0.174,0.122c0.037,0.079,0.054,0.176,0.047,0.284   c-0.003,0.039-0.012,0.095-0.032,0.18s-0.045,0.173-0.081,0.275L137.505,259.638L137.505,259.638z M142.661,257.04l-0.862-12.336   c-0.061-0.855-0.163-1.43-0.312-1.725c-0.146-0.301-0.379-0.561-0.705-0.791c-0.145-0.1-0.304-0.179-0.47-0.234   c-0.165-0.05-0.354-0.08-0.559-0.085c-0.016-0.009-0.04-0.017-0.069-0.023c-0.295-0.056-0.445-0.169-0.458-0.345   c-0.012-0.167,0.014-0.283,0.081-0.34c0.067-0.063,0.207-0.105,0.431-0.131c0.095-0.006,0.443-0.002,1.051,0.018   s1.16,0.01,1.663-0.025c0.879-0.062,1.758-0.176,2.63-0.337c0.169-0.031,0.264-0.047,0.292-0.049   c0.128-0.009,0.23,0.017,0.307,0.078c0.075,0.058,0.115,0.149,0.123,0.269c0.015,0.204-0.173,0.389-0.563,0.545l-0.027,0.017   c-0.047,0.022-0.103,0.05-0.176,0.084c-0.272,0.128-0.465,0.251-0.575,0.374c-0.228,0.23-0.38,0.509-0.452,0.843   c-0.077,0.33-0.084,0.898-0.028,1.705l0.926,13.238c0.049,0.698,0.233,1.158,0.56,1.388c0.322,0.23,0.919,0.313,1.793,0.252   c1.178-0.082,2.294-0.284,3.346-0.606c1.057-0.316,1.893-0.7,2.516-1.145c0.362-0.278,0.695-0.635,1.003-1.076   c0.303-0.441,0.512-0.666,0.621-0.674c0.076-0.005,0.141,0.033,0.189,0.12c0.054,0.082,0.086,0.199,0.096,0.352   c0.019,0.256-0.046,0.623-0.194,1.097c-0.148,0.469-0.353,0.897-0.603,1.278c-0.355,0.521-0.772,0.903-1.241,1.155   c-0.474,0.253-1.084,0.405-1.834,0.457c-0.232,0.017-0.938,0.037-2.114,0.063c-1.176,0.029-2.232,0.075-3.158,0.14   c-1.548,0.108-2.997,0.262-4.344,0.456c-0.175,0.022-0.284,0.034-0.317,0.037c-0.076,0.005-0.145-0.023-0.211-0.09   c-0.067-0.067-0.101-0.142-0.106-0.222c-0.009-0.124,0.018-0.221,0.083-0.307c0.066-0.086,0.207-0.191,0.432-0.316   c0.019-0.011,0.042-0.022,0.069-0.034c0.303-0.179,0.52-0.351,0.646-0.522c0.234-0.273,0.394-0.59,0.474-0.939   C142.696,258.302,142.711,257.762,142.661,257.04L142.661,257.04z M159.278,255.195l2.578-6.564   c0.039-0.088,0.058-0.175,0.06-0.273c0.002-0.093-0.014-0.206-0.043-0.332c-0.02-0.083-0.052-0.159-0.099-0.235   c-0.046-0.073-0.103-0.148-0.177-0.219l-4.687-4.555c-0.75-0.731-1.338-1.245-1.753-1.54s-0.831-0.512-1.243-0.646   c-0.162-0.045-0.326-0.081-0.488-0.103c-0.164-0.016-0.361-0.023-0.6-0.018c-0.021-0.005-0.051-0.008-0.085-0.01   c-0.382-0.024-0.592-0.127-0.631-0.299c-0.022-0.098,0-0.19,0.068-0.274c0.064-0.079,0.178-0.139,0.331-0.174   c0.009-0.003,0.339-0.054,0.986-0.15c0.651-0.097,1.288-0.219,1.914-0.363c0.427-0.099,0.913-0.235,1.463-0.416   c0.549-0.181,0.896-0.285,1.03-0.316c0.184-0.032,0.319-0.034,0.405,0c0.091,0.032,0.147,0.107,0.174,0.224   c0.038,0.162-0.033,0.301-0.219,0.406c-0.069,0.036-0.125,0.068-0.177,0.1c-0.176,0.109-0.306,0.242-0.388,0.397   c-0.086,0.157-0.106,0.323-0.066,0.494c0.04,0.172,0.135,0.37,0.289,0.593c0.148,0.225,0.347,0.447,0.588,0.666l3.944,3.754   l0.038,0.036c0.207,0.201,0.35,0.29,0.419,0.274c0.056-0.014,0.11-0.055,0.165-0.137c0.05-0.079,0.108-0.186,0.159-0.324   l2.104-5.024c0.143-0.374,0.239-0.676,0.284-0.905c0.049-0.231,0.052-0.433,0.011-0.608c-0.044-0.19-0.134-0.346-0.266-0.472   c-0.137-0.129-0.285-0.198-0.447-0.204c-0.099-0.007-0.223-0.013-0.375-0.016c-0.4-0.001-0.63-0.104-0.676-0.304   c-0.026-0.116-0.014-0.207,0.035-0.272c0.044-0.063,0.148-0.116,0.309-0.164c0.158-0.036,0.491-0.073,1.006-0.109   c0.518-0.041,0.949-0.098,1.307-0.18c0.218-0.05,0.518-0.148,0.91-0.288c0.392-0.145,0.679-0.235,0.86-0.277   c0.272-0.063,0.453-0.085,0.552-0.059c0.1,0.025,0.16,0.1,0.188,0.216c0.042,0.181-0.08,0.355-0.367,0.529l-0.014,0.003   c-0.056,0.032-0.125,0.072-0.201,0.12c-0.073,0.046-0.146,0.092-0.206,0.146c-0.313,0.271-0.576,0.572-0.803,0.903   c-0.223,0.324-0.464,0.786-0.717,1.382l-2.691,6.518c-0.033,0.091-0.056,0.184-0.063,0.278c-0.008,0.095-0.003,0.181,0.016,0.26   c0.018,0.074,0.048,0.146,0.095,0.218c0.044,0.067,0.104,0.137,0.175,0.209l6.754,6.74c0.288,0.295,0.604,0.54,0.953,0.723   c0.347,0.188,0.702,0.313,1.059,0.372l0.344,0.008c0.009-0.002,0.019-0.004,0.027-0.007c0.316-0.004,0.494,0.087,0.538,0.277   c0.031,0.134,0.017,0.24-0.041,0.312c-0.062,0.068-0.186,0.126-0.376,0.17c-0.036,0.009-0.333,0.058-0.883,0.15   c-0.552,0.088-1.07,0.188-1.563,0.302c-0.835,0.193-1.642,0.423-2.431,0.688c-0.127,0.039-0.205,0.062-0.242,0.07   c-0.125,0.029-0.229,0.023-0.302-0.018c-0.077-0.036-0.129-0.112-0.153-0.219c-0.04-0.172,0.132-0.401,0.517-0.681   c0.385-0.28,0.54-0.561,0.473-0.853c-0.022-0.097-0.105-0.244-0.247-0.437c-0.146-0.19-0.332-0.401-0.558-0.638l-4.57-4.538   c-0.171-0.171-0.289-0.28-0.358-0.328c-0.069-0.047-0.127-0.063-0.169-0.054c-0.065,0.015-0.135,0.075-0.203,0.179   c-0.075,0.101-0.136,0.236-0.195,0.402l-2.418,6.137c-0.089,0.23-0.145,0.453-0.168,0.669c-0.023,0.215-0.01,0.422,0.036,0.622   c0.039,0.172,0.156,0.32,0.347,0.442c0.188,0.122,0.415,0.192,0.678,0.21c0.095,0.007,0.23,0,0.396-0.019   c0.271-0.037,0.428,0.053,0.476,0.262c0.025,0.106,0.002,0.199-0.069,0.27c-0.065,0.074-0.185,0.131-0.361,0.172   c-0.079,0.018-0.427,0.074-1.045,0.168c-0.618,0.099-1.185,0.205-1.699,0.323c-0.398,0.093-0.833,0.222-1.294,0.383   c-0.465,0.166-0.728,0.256-0.792,0.271c-0.116,0.026-0.202,0.017-0.256-0.028c-0.054-0.042-0.094-0.131-0.123-0.256   c-0.027-0.12-0.02-0.215,0.027-0.284c0.046-0.074,0.181-0.169,0.411-0.291c0.089-0.04,0.168-0.077,0.237-0.118   c0.073-0.041,0.162-0.101,0.266-0.184c0.36-0.254,0.698-0.635,1.007-1.136C158.599,256.823,158.929,256.116,159.278,255.195   L159.278,255.195z M176.882,250.278l-4.432-11.545c-0.29-0.756-0.553-1.267-0.792-1.531c-0.236-0.271-0.542-0.455-0.923-0.559   c-0.271-0.095-0.635-0.098-1.078-0.02c-0.009,0.004-0.018,0.007-0.027,0.01c-0.252,0.047-0.424,0.051-0.517,0.021   c-0.091-0.036-0.16-0.111-0.208-0.236c-0.05-0.129-0.046-0.237,0.012-0.315c0.06-0.084,0.187-0.164,0.387-0.24   c0.062-0.023,0.396-0.121,1.015-0.293c0.617-0.17,1.183-0.357,1.707-0.559c0.92-0.353,1.799-0.746,2.639-1.176   c0.148-0.077,0.234-0.12,0.261-0.131c0.125-0.047,0.236-0.05,0.342-0.014c0.103,0.042,0.175,0.111,0.211,0.205   c0.041,0.106,0.037,0.205-0.011,0.305c-0.044,0.099-0.194,0.237-0.438,0.423c-0.209,0.162-0.365,0.299-0.471,0.41   c-0.107,0.118-0.193,0.238-0.262,0.366c-0.153,0.277-0.225,0.57-0.206,0.884c0.012,0.312,0.171,0.857,0.471,1.64l4.442,11.572   c0.293,0.764,0.567,1.291,0.816,1.583c0.25,0.292,0.57,0.489,0.965,0.599c0.288,0.088,0.65,0.087,1.072,0.006   c0.03-0.001,0.05-0.004,0.059-0.007c0.25-0.055,0.424-0.065,0.526-0.038c0.099,0.032,0.171,0.102,0.216,0.217   c0.053,0.138,0.055,0.25-0.002,0.327c-0.051,0.081-0.191,0.166-0.418,0.253c-0.271,0.104-0.73,0.249-1.387,0.439   c-0.649,0.193-1.166,0.361-1.549,0.508c-0.817,0.314-1.631,0.678-2.438,1.085c-0.167,0.084-0.266,0.132-0.301,0.146   c-0.143,0.055-0.257,0.063-0.354,0.034c-0.1-0.033-0.167-0.104-0.206-0.206c-0.073-0.191,0.032-0.421,0.316-0.688   c0.023-0.02,0.04-0.03,0.049-0.034c0.158-0.132,0.292-0.26,0.408-0.396c0.113-0.13,0.211-0.274,0.292-0.423   c0.172-0.336,0.251-0.673,0.242-1.016C177.306,251.543,177.162,251.007,176.882,250.278L176.882,250.278z M186.366,246.552   l0.914-6.993c0.016-0.095,0.013-0.184-0.009-0.279c-0.02-0.091-0.063-0.197-0.122-0.312c-0.039-0.076-0.088-0.143-0.152-0.205   c-0.063-0.06-0.135-0.119-0.225-0.169l-5.649-3.287c-0.904-0.527-1.599-0.884-2.073-1.069c-0.474-0.186-0.931-0.295-1.362-0.326   c-0.168-0.005-0.337,0-0.498,0.019c-0.164,0.024-0.357,0.064-0.587,0.128c-0.021,0-0.051,0.005-0.085,0.012   c-0.376,0.068-0.604,0.02-0.685-0.138c-0.045-0.089-0.046-0.185,0-0.283c0.044-0.092,0.14-0.178,0.279-0.249   c0.009-0.004,0.316-0.135,0.921-0.384c0.609-0.252,1.196-0.524,1.77-0.816c0.39-0.198,0.829-0.449,1.318-0.757   c0.489-0.309,0.801-0.494,0.924-0.557c0.17-0.075,0.302-0.11,0.393-0.099c0.097,0.011,0.169,0.069,0.223,0.175   c0.076,0.149,0.041,0.3-0.113,0.448c-0.06,0.052-0.105,0.097-0.147,0.14c-0.144,0.147-0.239,0.309-0.28,0.479   c-0.045,0.173-0.024,0.339,0.056,0.496c0.079,0.157,0.219,0.326,0.423,0.506c0.199,0.182,0.445,0.35,0.731,0.503l4.736,2.688   l0.045,0.025c0.25,0.146,0.41,0.197,0.474,0.165c0.051-0.026,0.093-0.08,0.126-0.172c0.029-0.089,0.061-0.206,0.076-0.354   l0.826-5.384c0.048-0.398,0.068-0.714,0.057-0.947c-0.009-0.236-0.055-0.432-0.137-0.593c-0.089-0.175-0.213-0.304-0.371-0.394   c-0.165-0.093-0.325-0.123-0.484-0.09c-0.098,0.018-0.219,0.042-0.367,0.075c-0.389,0.097-0.637,0.052-0.729-0.131   c-0.054-0.106-0.063-0.197-0.032-0.272c0.027-0.072,0.116-0.149,0.261-0.234c0.144-0.073,0.458-0.19,0.948-0.35   c0.493-0.165,0.898-0.324,1.225-0.49c0.199-0.102,0.467-0.27,0.814-0.5c0.345-0.234,0.602-0.392,0.767-0.477   c0.25-0.127,0.42-0.192,0.522-0.191c0.102,0.002,0.179,0.059,0.233,0.164c0.084,0.166,0.009,0.364-0.228,0.603l-0.013,0.007   c-0.047,0.045-0.104,0.101-0.167,0.165c-0.06,0.063-0.118,0.124-0.165,0.19c-0.237,0.341-0.42,0.695-0.56,1.071   c-0.139,0.369-0.26,0.874-0.361,1.514l-1.035,6.976c-0.01,0.096-0.009,0.191,0.007,0.285s0.041,0.176,0.078,0.248   c0.034,0.068,0.082,0.13,0.144,0.188c0.061,0.055,0.136,0.108,0.221,0.16l8.185,4.906c0.351,0.217,0.716,0.378,1.1,0.471   c0.382,0.1,0.757,0.133,1.116,0.104l0.336-0.074c0.009-0.005,0.017-0.009,0.025-0.014c0.306-0.081,0.5-0.035,0.589,0.139   c0.063,0.123,0.074,0.229,0.036,0.313c-0.044,0.081-0.149,0.167-0.323,0.256c-0.034,0.018-0.311,0.136-0.821,0.359   c-0.514,0.219-0.993,0.441-1.442,0.671c-0.764,0.389-1.49,0.808-2.192,1.256c-0.114,0.068-0.184,0.109-0.218,0.127   c-0.114,0.059-0.217,0.078-0.298,0.056c-0.083-0.017-0.151-0.078-0.201-0.175c-0.08-0.157,0.03-0.422,0.337-0.786   c0.306-0.364,0.389-0.674,0.253-0.941c-0.046-0.089-0.162-0.211-0.346-0.363c-0.188-0.149-0.42-0.31-0.696-0.484l-5.532-3.298   c-0.207-0.124-0.348-0.202-0.428-0.231c-0.078-0.029-0.138-0.03-0.176-0.011c-0.06,0.03-0.112,0.104-0.154,0.223   c-0.048,0.115-0.074,0.262-0.092,0.437l-0.862,6.54c-0.029,0.245-0.03,0.475-0.001,0.689s0.093,0.412,0.186,0.595   c0.08,0.157,0.229,0.273,0.443,0.346c0.214,0.073,0.45,0.086,0.709,0.04c0.094-0.017,0.224-0.056,0.381-0.114   c0.252-0.102,0.427-0.052,0.524,0.139c0.05,0.098,0.05,0.193-0.002,0.279c-0.047,0.088-0.148,0.171-0.31,0.253   c-0.071,0.037-0.396,0.176-0.974,0.416c-0.575,0.245-1.099,0.485-1.57,0.726c-0.364,0.186-0.754,0.417-1.163,0.684   c-0.41,0.273-0.644,0.424-0.703,0.454c-0.106,0.055-0.191,0.065-0.256,0.034c-0.062-0.027-0.121-0.104-0.18-0.218   c-0.057-0.11-0.072-0.204-0.043-0.282c0.027-0.084,0.135-0.208,0.329-0.382c0.076-0.061,0.145-0.116,0.201-0.172   c0.062-0.058,0.133-0.138,0.213-0.242c0.289-0.335,0.524-0.785,0.703-1.347C186.101,248.296,186.25,247.53,186.366,246.552   L186.366,246.552z"/>
</g>
</svg>